<svg width="778" height="804" viewBox="0 0 778 804" fill="none" xmlns="http://www.w3.org/2000/svg">
<g clip-path="url(#clip0_9_725)">
<path d="M92.7387 515.867L64.8192 516.395L50.6806 516.602C45.9552 516.696 41.2109 516.677 36.4667 516.715H35.6383V515.867L35.5442 492.09V491.148H36.4855L64.6309 491.261C74.0065 491.28 83.4008 491.468 92.7764 491.563H93.3035V492.071C93.2659 496.1 93.1341 500.11 93.0588 504.082L92.7387 515.867ZM92.7387 515.867L92.4752 503.856C92.381 499.903 92.2681 495.968 92.2304 492.071L92.7387 492.579C83.3632 492.673 73.9688 492.88 64.5933 492.88L36.4479 492.993L37.3892 492.052L37.295 515.83L36.4479 514.983C41.098 515.02 45.7293 515.001 50.3794 515.096L64.3674 515.303L92.7387 515.867Z" fill="#EBEBEB"/>
<path d="M61.3552 545.858L33.4357 546.385L19.2971 546.592C14.5716 546.686 9.82738 546.668 5.08314 546.705H4.25478V545.858L4.16064 522.08V521.139H5.10196L33.2474 521.252C42.6229 521.271 52.0173 521.459 61.3928 521.553H61.92V522.061C61.8823 526.09 61.7505 530.1 61.6752 534.073L61.3552 545.858ZM61.3552 545.858L61.0916 533.847C60.9975 529.893 60.8845 525.959 60.8469 522.061L61.3552 522.57C51.9796 522.664 42.5853 522.871 33.2097 522.871L5.06431 522.984L6.00563 522.043L5.9115 545.82L5.06431 544.973C9.71443 545.011 14.3457 544.992 18.9958 545.067L32.9838 545.274L61.3552 545.858Z" fill="#EBEBEB"/>
<path d="M61.3552 31.2203L33.4168 31.7474L19.2782 31.9545C14.5528 32.0486 9.80855 32.0298 5.0643 32.0674H4.23594V31.2203L4.12299 7.44254V6.50122H5.0643L33.2097 6.61418C42.5853 6.63301 51.9796 6.82127 61.3552 6.9154H61.8823V7.42371C61.8447 11.4526 61.7129 15.4626 61.6376 19.4349L61.3552 31.2203ZM61.3552 31.2203L61.0916 19.209C60.9975 15.2555 60.8845 11.3208 60.8469 7.42371L61.3552 7.93203C51.9796 8.02616 42.5853 8.23325 33.2097 8.23325L5.0643 8.38386L6.00562 7.44254L5.89267 31.2203L5.04548 30.3731C9.69559 30.4107 14.3269 30.3919 18.977 30.4672L32.965 30.6743L61.3552 31.2203Z" fill="#EBEBEB"/>
<path d="M772.936 31.2203L745.016 31.7474L730.859 31.9545C726.133 32.0486 721.389 32.0298 716.645 32.0674H715.817V31.2203L715.722 7.44254V6.50122H716.664L744.809 6.61418C754.185 6.63301 763.579 6.82127 772.955 6.9154H773.482V7.42371C773.444 11.4526 773.312 15.4626 773.237 19.4349L772.936 31.2203ZM772.936 31.2203L772.672 19.209C772.578 15.2555 772.465 11.3208 772.427 7.42371L772.936 7.93203C763.56 8.02616 754.166 8.23325 744.79 8.23325L716.645 8.34621L717.586 7.40489L717.492 31.1826L716.645 30.3354C721.295 30.3731 725.926 30.3542 730.576 30.4295L744.564 30.6366L772.936 31.2203Z" fill="#EBEBEB"/>
<path d="M741.552 61.2106L713.633 61.7378L699.494 61.9449C694.769 62.039 690.024 62.0202 685.28 62.039H684.452V61.1918L684.358 37.4141V36.4728H685.299L713.444 36.5857C722.82 36.5857 732.214 36.7928 741.59 36.887H742.117V37.3953C742.079 41.4241 741.948 45.4341 741.872 49.4065L741.552 61.2106ZM741.552 61.2106L741.289 49.1994C741.194 45.2459 741.082 41.3112 741.044 37.4141L741.552 37.9224C732.177 38.0165 722.782 38.2236 713.407 38.2236L685.261 38.3366L686.203 37.3953L686.109 61.173L685.261 60.3258C689.911 60.3634 694.543 60.3446 699.193 60.4388L713.181 60.6458L741.552 61.2106Z" fill="#EBEBEB"/>
<path d="M597.399 339.446L569.479 339.973L555.322 340.18C550.596 340.274 545.852 340.255 541.108 340.274H540.279V339.427L540.185 315.649V314.708H541.127L569.272 314.821C578.648 314.84 588.042 315.028 597.417 315.122H597.945V315.63C597.907 319.659 597.775 323.669 597.7 327.641L597.399 339.446ZM597.399 339.446L597.135 327.434C597.041 323.481 596.928 319.546 596.89 315.649L597.399 316.157C588.023 316.252 578.629 316.459 569.253 316.459L541.108 316.572L542.049 315.63L541.955 339.408L541.108 338.561C545.758 338.598 550.389 338.58 555.039 338.655L569.027 338.862L597.399 339.446Z" fill="#EBEBEB"/>
<path d="M565.996 369.436L538.077 369.963L523.938 370.17C519.213 370.264 514.468 370.246 509.724 370.283H508.896V369.436L508.802 345.658V344.717H509.743L537.888 344.83C547.264 344.849 556.658 345.037 566.034 345.131H566.561V345.64C566.523 349.668 566.391 353.678 566.316 357.651L565.996 369.436ZM565.996 369.436L565.733 357.425C565.638 353.471 565.525 349.537 565.488 345.64L565.996 346.148C556.621 346.242 547.226 346.449 537.851 346.449L509.705 346.562L510.647 345.621L510.552 369.398L509.705 368.551C514.355 368.589 518.987 368.57 523.637 368.664L537.625 368.871L565.996 369.436Z" fill="#EBEBEB"/>
<path d="M534.726 339.446L506.806 339.973L492.649 340.18C487.923 340.274 483.179 340.255 478.435 340.274H477.606V339.427L477.512 315.649V314.708H478.454L506.599 314.821C515.974 314.84 525.369 315.028 534.744 315.122H535.272V315.63C535.234 319.659 535.102 323.669 535.027 327.641L534.726 339.446ZM534.726 339.446L534.462 327.434C534.387 323.481 534.255 319.546 534.217 315.649L534.726 316.157C525.35 316.252 515.956 316.459 506.58 316.459L478.435 316.572L479.376 315.63L479.282 339.408L478.435 338.561C483.085 338.598 487.716 338.58 492.366 338.655L506.354 338.862L534.726 339.446Z" fill="#EBEBEB"/>
<path d="M772.936 545.858L745.016 546.385L730.859 546.592C726.133 546.686 721.389 546.668 716.645 546.705H715.817V545.858L715.722 522.08V521.139H716.664L744.809 521.252C754.185 521.271 763.579 521.459 772.955 521.553H773.482V522.061C773.444 526.09 773.312 530.1 773.237 534.073L772.936 545.858ZM772.936 545.858L772.672 533.847C772.578 529.893 772.465 525.959 772.427 522.061L772.936 522.57C763.56 522.664 754.166 522.871 744.79 522.871L716.645 522.984L717.586 522.043L717.492 545.82L716.645 544.973C721.295 545.011 725.926 544.992 730.576 545.067L744.564 545.274L772.936 545.858Z" fill="#EBEBEB"/>
<path d="M294.727 101.951L266.807 102.478L252.669 102.685C247.943 102.779 243.199 102.76 238.455 102.798H237.626V101.951L237.532 78.1733V77.2319H238.474L266.619 77.3449C275.995 77.3637 285.389 77.552 294.765 77.6461H295.292V78.1544C295.254 82.1833 295.122 86.1933 295.047 90.1657L294.727 101.951ZM294.727 101.951L294.463 89.9397C294.369 85.9862 294.256 82.0515 294.219 78.1544L294.727 78.6627C285.351 78.7569 275.957 78.964 266.581 78.964L238.436 79.0769L239.377 78.1356L239.283 101.913L238.436 101.066C243.086 101.104 247.717 101.085 252.368 101.179L266.356 101.386L294.727 101.951Z" fill="#EBEBEB"/>
<path d="M715.12 259.509L726.209 241.643L720.73 238.254C719.13 237.256 718.245 235.43 718.415 233.547C718.509 232.512 718.546 231.458 718.509 230.403C718.471 228.521 719.45 226.751 721.126 225.866L726.792 222.816L716.852 204.272L711.185 207.322C709.529 208.207 707.514 208.056 705.97 206.983C705.104 206.381 704.22 205.835 703.297 205.327C701.64 204.423 700.605 202.691 700.661 200.789L700.868 194.351L679.858 193.692L679.67 200.149C679.613 202.051 678.446 203.689 676.733 204.498C676.262 204.724 675.811 204.95 675.359 205.195C674.907 205.44 674.455 205.703 674.022 205.967C672.403 206.946 670.407 207.002 668.807 206.004L663.291 202.597L652.202 220.463L657.681 223.871C659.281 224.868 660.166 226.695 659.996 228.577C659.902 229.613 659.865 230.667 659.902 231.702C659.94 233.585 658.961 235.336 657.285 236.24L651.619 239.289L661.559 257.833L667.226 254.783C668.882 253.899 670.897 254.049 672.441 255.122C673.307 255.725 674.191 256.271 675.114 256.76C676.771 257.664 677.806 259.396 677.75 261.297L677.543 267.755L698.553 268.414L698.76 261.956C698.816 260.074 699.984 258.436 701.678 257.626C702.149 257.4 702.601 257.174 703.071 256.93C703.523 256.685 703.975 256.421 704.408 256.158C706.027 255.179 708.041 255.122 709.66 256.12L715.12 259.509ZM697.329 246.236C688.951 250.736 678.522 247.592 674.022 239.195C669.523 230.818 672.667 220.369 681.044 215.869C689.422 211.37 699.871 214.533 704.37 222.91C708.87 231.307 705.707 241.737 697.329 246.236Z" fill="#EBEBEB"/>
<path d="M109.494 461.968L120.583 444.101L115.104 440.713C113.504 439.715 112.619 437.889 112.789 436.006C112.883 434.971 112.921 433.916 112.883 432.862C112.845 430.979 113.824 429.21 115.5 428.325L121.167 425.275L111.226 406.731L105.56 409.781C103.903 410.666 101.888 410.515 100.345 409.442C99.4786 408.84 98.5938 408.294 97.6713 407.785C96.0145 406.882 94.9791 405.15 95.0356 403.248L95.2427 396.81L74.2324 396.151L74.0442 402.608C73.9877 404.51 72.8204 406.147 71.1072 406.957C70.6366 407.183 70.1848 407.409 69.7329 407.654C69.2811 407.898 68.8293 408.162 68.3962 408.425C66.7772 409.404 64.7816 409.461 63.1813 408.463L57.6652 405.056L46.5765 422.922L52.055 426.329C53.6552 427.327 54.54 429.153 54.3706 431.036C54.2765 432.071 54.2388 433.126 54.2765 434.161C54.3141 436.044 53.3351 437.795 51.6596 438.698L45.9929 441.748L55.9332 460.292L61.5999 457.242C63.2566 456.357 65.2711 456.508 66.8148 457.581C67.6808 458.184 68.5657 458.73 69.4882 459.219C71.1449 460.123 72.1803 461.855 72.1239 463.756L71.9168 470.214L92.927 470.873L93.1341 464.415C93.1906 462.532 94.3578 460.895 96.0522 460.085C96.5229 459.859 96.9747 459.633 97.4453 459.388C97.8972 459.144 98.349 458.88 98.782 458.617C100.401 457.638 102.416 457.581 104.035 458.579L109.494 461.968ZM91.6845 448.695C83.3067 453.195 72.8769 450.051 68.3774 441.654C63.8779 433.276 67.0219 422.828 75.3997 418.328C83.7774 413.829 94.226 416.991 98.7255 425.369C103.244 433.766 100.081 444.196 91.6845 448.695Z" fill="#EBEBEB"/>
<path d="M324.736 119.742L317.375 106.978L313.478 109.237C312.33 109.896 310.918 109.839 309.807 109.105C309.186 108.71 308.564 108.333 307.905 107.994C306.719 107.392 305.966 106.206 305.966 104.888V100.37H291.225V104.888C291.225 106.206 290.472 107.392 289.286 107.994C288.627 108.333 287.987 108.691 287.385 109.105C286.274 109.82 284.862 109.896 283.714 109.237L279.816 106.978L272.455 119.742L276.371 122.001C277.52 122.66 278.16 123.921 278.084 125.258C278.066 125.616 278.066 125.973 278.066 126.35C278.066 126.708 278.066 127.065 278.084 127.442C278.16 128.76 277.52 130.021 276.371 130.68L272.437 132.958L279.798 145.722L283.714 143.463C284.862 142.804 286.274 142.861 287.385 143.595C287.987 143.99 288.627 144.367 289.286 144.687C290.472 145.289 291.225 146.475 291.225 147.793V152.311H305.966V147.793C305.966 146.475 306.719 145.289 307.905 144.687C308.564 144.348 309.186 143.99 309.807 143.595C310.918 142.861 312.33 142.804 313.478 143.463L317.394 145.722L324.755 132.958L320.839 130.699C319.691 130.04 319.069 128.779 319.126 127.461C319.145 127.103 319.145 126.726 319.145 126.369C319.145 126.011 319.145 125.653 319.126 125.277C319.051 123.959 319.691 122.698 320.839 122.02L324.736 119.742ZM310.654 126.35C310.654 133.014 305.251 138.418 298.586 138.418C291.922 138.418 286.519 133.014 286.519 126.35C286.519 119.685 291.922 114.282 298.586 114.282C305.27 114.263 310.654 119.685 310.654 126.35Z" fill="#EBEBEB"/>
<path d="M85.5847 490.829C60.9786 514.908 56.8556 552.184 62.0329 584.81C62.1647 585.544 63.3131 585.356 63.3131 584.659C63.3131 577.223 63.0872 569.862 63.106 562.52C63.2378 562.181 63.3507 561.861 63.4825 561.541C69.9023 556.872 75.8138 551.6 79.4661 544.371C83.5703 536.294 85.1893 527.182 88.3333 518.729C88.6157 517.92 87.7686 518.165 87.2038 518.579C72.2368 529.611 67.4737 541.49 63.1813 557.361C63.3884 549.115 64.0097 540.888 65.7793 532.642C69.0175 517.581 75.4185 502.652 86.2248 491.469C86.639 491.036 86.0177 490.396 85.5847 490.829Z" fill="#263238"/>
<path d="M90.216 493.634C94.452 493.784 97.1065 500.543 100.401 502.52C102.152 503.574 103.846 503.499 105.07 501.786C108.346 497.23 103.846 491.601 99.6292 488.438C102.641 489.68 105.145 491.864 108.402 492.467C110.379 492.824 111.904 492.09 112.356 490.094C113.787 483.882 105.993 481.114 100.627 480.982C103.225 479.175 110.661 474.28 106.708 471.87C102.698 469.442 93.9813 476.464 91.1385 478.78C86.9591 482.168 81.9701 487.252 81.7818 492.561C81.5371 498.736 86.9591 494.933 90.216 493.634Z" fill="#FFC727"/>
<path opacity="0.1" d="M90.216 493.634C94.452 493.784 97.1065 500.543 100.401 502.52C102.152 503.574 103.846 503.499 105.07 501.786C108.346 497.23 103.846 491.601 99.6292 488.438C102.641 489.68 105.145 491.864 108.402 492.467C110.379 492.824 111.904 492.09 112.356 490.094C113.787 483.882 105.993 481.114 100.627 480.982C103.225 479.175 110.661 474.28 106.708 471.87C102.698 469.442 93.9813 476.464 91.1385 478.78C86.9591 482.168 81.9701 487.252 81.7818 492.561C81.5371 498.736 86.9591 494.933 90.216 493.634Z" fill="black"/>
<path d="M88.9923 494.669C94.3955 492.203 104.806 495.742 105.691 493.709C107.48 489.548 99.1774 486.687 94.6967 486.122C98.8197 485.011 106.746 483.223 106.501 479.232C106.2 474.374 94.3578 478.554 88.371 483.148C80.8216 488.927 80.8781 494.519 82.1207 495.648C83.815 497.173 88.0886 495.083 88.9923 494.669Z" fill="#FFC727"/>
<path d="M29.5575 488.438C55.0672 511.575 60.6022 548.645 56.6674 581.459C56.5545 582.212 55.4061 582.043 55.3872 581.346C55.1049 573.928 55.0484 566.548 54.7472 559.225C54.5965 558.886 54.4836 558.585 54.333 558.246C47.7437 553.822 41.644 548.776 37.7093 541.698C33.3039 533.772 31.3271 524.735 27.8819 516.414C27.5619 515.623 28.4279 515.83 29.0115 516.226C44.3926 526.693 49.6076 538.365 54.5024 554.067C53.9941 545.839 53.0528 537.631 50.963 529.46C47.1601 514.531 40.1944 499.865 28.955 489.097C28.5032 488.701 29.1056 488.024 29.5575 488.438Z" fill="#263238"/>
<path d="M25.0391 491.412C20.822 491.714 18.4122 498.585 15.1929 500.675C13.4985 501.786 11.7853 501.786 10.5051 500.11C7.05991 495.667 11.3335 489.887 15.4188 486.574C12.4443 487.929 10.0345 490.207 6.81517 490.942C4.85722 491.375 3.29464 490.697 2.7675 488.72C1.09195 482.564 8.79194 479.495 14.1386 479.156C11.4841 477.443 3.85943 472.831 7.71883 470.27C11.6347 467.691 20.6149 474.374 23.5518 476.577C27.8631 479.815 33.0403 484.691 33.4357 489.982C33.9063 496.194 28.3525 492.598 25.0391 491.412Z" fill="#FFC727"/>
<path opacity="0.1" d="M25.0391 491.412C20.822 491.714 18.4122 498.585 15.1929 500.675C13.4985 501.786 11.7853 501.786 10.5051 500.11C7.05991 495.667 11.3335 489.887 15.4188 486.574C12.4443 487.929 10.0345 490.207 6.81517 490.942C4.85722 491.375 3.29464 490.697 2.7675 488.72C1.09195 482.564 8.79194 479.495 14.1386 479.156C11.4841 477.443 3.85943 472.831 7.71883 470.27C11.6347 467.691 20.6149 474.374 23.5518 476.577C27.8631 479.815 33.0403 484.691 33.4357 489.982C33.9063 496.194 28.3525 492.598 25.0391 491.412Z" fill="black"/>
<path d="M26.3004 492.41C20.8031 490.151 10.5428 494.086 9.58262 492.071C7.62467 487.967 15.833 484.804 20.2948 484.07C16.1342 483.11 8.15181 481.622 8.24594 477.631C8.3589 472.755 20.3513 476.483 26.5075 480.851C34.264 486.348 34.4334 491.939 33.2285 493.107C31.5718 494.726 27.2041 492.787 26.3004 492.41Z" fill="#FFC727"/>
<path d="M55.6319 549.529C57.5146 561.729 59.849 574.324 63.5578 586.109C63.9155 587.182 65.497 586.9 65.3464 585.751C63.6708 574.474 60.6209 563.423 58.9454 552.146C57.251 540.737 56.3285 529.178 56.9874 517.637C58.0605 498.642 63.219 478.441 75.6067 463.568C75.8703 463.21 75.3055 462.721 75.0231 463.041C50.2099 491.977 54.1635 527.446 54.1823 530.628C50.6618 518.654 47.0471 504.911 33.7557 492.73C33.1909 492.203 32.7391 492.448 32.8332 493.351C35.2053 515.566 41.3804 527.163 54.2576 539.043C54.6153 542.563 55.0672 546.065 55.6319 549.529Z" fill="#263238"/>
<path d="M75.8138 466.9C80.2757 464.923 86.4319 470.609 90.8561 470.986C93.1905 471.193 94.9226 470.27 95.3368 467.879C96.4287 461.497 88.9546 457.92 82.9867 456.772C86.7331 456.546 90.4231 457.544 94.113 456.546C96.3346 455.924 97.5583 454.4 97.0311 452.084C95.3932 444.911 85.9047 445.965 80.2757 448.526C82.0642 445.344 87.3167 436.514 81.9889 436.006C76.6233 435.517 71.0884 447.17 69.2999 451.011C66.6642 456.64 64.0473 464.415 66.5136 470.025C69.394 476.577 73.1028 469.894 75.8138 466.9Z" fill="#FFC727"/>
<path opacity="0.1" d="M75.8138 466.9C80.2757 464.923 86.4319 470.609 90.8561 470.986C93.1905 471.193 94.9226 470.27 95.3368 467.879C96.4287 461.497 88.9546 457.92 82.9867 456.772C86.7331 456.546 90.4231 457.544 94.113 456.546C96.3346 455.924 97.5583 454.4 97.0311 452.084C95.3932 444.911 85.9047 445.965 80.2757 448.526C82.0642 445.344 87.3167 436.514 81.9889 436.006C76.6233 435.517 71.0884 447.17 69.2999 451.011C66.6642 456.64 64.0473 464.415 66.5136 470.025C69.394 476.577 73.1028 469.894 75.8138 466.9Z" fill="black"/>
<path d="M75.0796 468.614C79.4473 463.342 92.0233 461.78 91.9104 459.2C91.6656 453.967 81.6123 455.19 76.6798 456.866C80.4075 453.628 87.7121 447.792 85.4529 443.782C82.7043 438.887 72.5192 449.185 68.6033 456.96C63.6896 466.769 66.5512 472.529 68.3962 473.075C70.9754 473.81 74.3454 469.48 75.0796 468.614Z" fill="#FFC727"/>
<path d="M39.3095 556.213L28.3713 639.839H94.9602C93.5859 632.422 81.1982 556.118 81.1982 556.118L39.3095 556.213Z" fill="#FFC727"/>
<path d="M0 640.122L97.2571 639.67L194.495 639.5L389.009 639.18L583.505 639.5L680.762 639.651L778 640.122L680.762 640.574L583.505 640.743L389.009 641.063L194.495 640.743L97.2571 640.574L0 640.122Z" fill="#263238"/>
<path d="M389.009 803.873C543.995 803.873 669.635 786.105 669.635 764.187C669.635 742.269 543.995 724.501 389.009 724.501C234.024 724.501 108.383 742.269 108.383 764.187C108.383 786.105 234.024 803.873 389.009 803.873Z" fill="#EBEBEB"/>
<path d="M214.997 347.428L203.306 301.435L110.981 324.893L98.782 276.886L172.563 108.747L209.161 99.447L244.743 239.44L274.281 231.928L286.575 280.274L257.036 287.786L268.728 333.779L214.997 347.428ZM151.741 263.067L197.395 251.47L182.296 192.054L151.741 263.067Z" fill="#1B3764"/>
<path d="M479.414 193.88C479.414 209.129 477.098 223.155 472.486 235.957C467.854 248.778 461.51 259.867 453.433 269.204C445.357 278.561 435.831 285.828 424.855 291.024C413.879 296.22 401.924 298.818 389.009 298.818C376.076 298.818 364.064 296.22 352.995 291.024C341.906 285.828 332.323 278.561 324.247 269.204C316.17 259.848 309.863 248.759 305.364 235.957C300.864 223.136 298.605 209.111 298.605 193.88C298.605 178.631 300.864 164.605 305.364 151.803C309.863 138.982 316.151 127.894 324.247 118.556C332.323 109.199 341.906 101.876 352.995 96.5666C364.083 91.2575 376.076 88.603 389.009 88.603C401.943 88.603 413.898 91.2575 424.855 96.5666C435.812 101.876 445.338 109.218 453.433 118.556C461.51 127.912 467.873 139.001 472.486 151.803C477.098 164.624 479.414 178.65 479.414 193.88ZM423.631 193.88C423.631 177.727 420.393 164.605 413.935 154.571C407.459 144.517 399.157 139.51 388.991 139.51C378.372 139.51 369.882 144.536 363.537 154.571C357.174 164.624 354.011 177.727 354.011 193.88C354.011 210.052 357.174 223.099 363.537 233.02C369.882 242.96 378.372 247.912 388.991 247.912C399.157 247.912 407.459 242.942 413.935 233.02C420.412 223.099 423.631 210.052 423.631 193.88Z" fill="#1B3764"/>
<path d="M578.855 338.561L586.442 291.721L492.404 276.49L500.33 227.598L634.957 102.723L672.233 108.766L649.133 251.357L679.218 256.233L671.236 305.464L641.151 300.588L633.564 347.428L578.855 338.561ZM554.418 235.995L600.919 243.525L610.728 182.998L554.418 235.995Z" fill="#1B3764"/>
<path d="M311.2 55.2239C307.246 55.2239 303.651 54.452 300.431 52.9083C297.212 51.3645 294.445 49.3124 292.148 46.752C289.832 44.1917 288.044 41.2736 286.782 37.9601C285.521 34.6655 284.881 31.2956 284.881 27.8504C284.881 24.2545 285.558 20.8093 286.895 17.5147C288.232 14.2201 290.096 11.302 292.449 8.76041C294.802 6.21885 297.607 4.20443 300.845 2.71715C304.084 1.22986 307.623 0.476807 311.426 0.476807C315.323 0.476807 318.9 1.26751 322.119 2.86776C325.339 4.468 328.087 6.55773 330.365 9.13694C332.643 11.7162 334.413 14.6719 335.693 17.9665C336.954 21.2611 337.595 24.6122 337.595 28.001C337.595 31.5968 336.936 35.042 335.618 38.299C334.3 41.5748 332.474 44.4552 330.139 46.9591C327.805 49.463 325.019 51.4775 321.78 52.9647C318.523 54.4709 315.003 55.2239 311.2 55.2239ZM295.536 27.8315C295.536 30.166 295.894 32.4252 296.61 34.609C297.325 36.7929 298.342 38.7132 299.697 40.3887C301.034 42.0643 302.69 43.4009 304.648 44.4176C306.606 45.4342 308.809 45.9425 311.294 45.9425C313.836 45.9425 316.076 45.4154 318.015 44.3799C319.973 43.3445 321.611 41.9513 322.966 40.2381C324.303 38.5061 325.32 36.567 326.016 34.4208C326.694 32.2746 327.052 30.0719 327.052 27.8504C327.052 25.5159 326.675 23.2567 325.941 21.0729C325.207 18.889 324.171 16.9687 322.816 15.2932C321.479 13.6176 319.822 12.2809 317.865 11.302C315.907 10.323 313.723 9.81469 311.294 9.81469C308.753 9.81469 306.512 10.3418 304.517 11.3773C302.54 12.4127 300.883 13.7871 299.565 15.4814C298.247 17.1758 297.25 19.1149 296.553 21.2611C295.875 23.4073 295.536 25.61 295.536 27.8315Z" fill="#1B3764"/>
<path d="M363.067 55.6004C359.828 55.6004 356.91 55.0356 354.312 53.9249C351.733 52.8141 349.53 51.308 347.742 49.4065C345.935 47.5051 344.56 45.3212 343.6 42.8361C342.64 40.3511 342.151 37.7342 342.151 35.0044C342.151 32.2181 342.64 29.5824 343.6 27.0973C344.56 24.6122 345.953 22.4283 347.742 20.5269C349.549 18.6254 351.733 17.1193 354.312 16.0086C356.892 14.8978 359.81 14.333 363.067 14.333C366.305 14.333 369.223 14.8978 371.783 16.0086C374.344 17.1193 376.527 18.6254 378.316 20.5269C380.123 22.4283 381.498 24.6122 382.458 27.0973C383.418 29.5824 383.907 32.2181 383.907 35.0044C383.907 37.7342 383.418 40.3511 382.458 42.8361C381.498 45.3212 380.123 47.5051 378.354 49.4065C376.584 51.308 374.4 52.8141 371.821 53.9249C369.223 55.0356 366.305 55.6004 363.067 55.6004ZM352.656 34.9855C352.656 36.7552 352.919 38.3743 353.446 39.8239C353.973 41.2736 354.708 42.5161 355.649 43.5892C356.59 44.6623 357.682 45.4718 358.962 46.0554C360.224 46.6391 361.598 46.9215 363.067 46.9215C364.535 46.9215 365.909 46.6391 367.171 46.0554C368.432 45.4718 369.543 44.6435 370.484 43.5892C371.426 42.5161 372.16 41.2547 372.687 39.7863C373.214 38.3178 373.478 36.6987 373.478 34.9102C373.478 33.197 373.214 31.5968 372.687 30.1283C372.16 28.6599 371.426 27.3985 370.484 26.3254C369.543 25.2523 368.451 24.4428 367.171 23.8592C365.909 23.2755 364.535 22.9931 363.067 22.9931C361.598 22.9931 360.224 23.2944 358.962 23.8968C357.701 24.4992 356.59 25.3464 355.649 26.4007C354.708 27.4738 353.973 28.7352 353.446 30.2036C352.919 31.6721 352.656 33.2723 352.656 34.9855Z" fill="#1B3764"/>
<path d="M414.632 55.6005C411.488 55.6005 408.758 54.9039 406.424 53.5107C404.089 52.1176 402.263 50.2349 400.945 47.844V71.0381H390.76V14.992H399.665V21.8448C401.134 19.5103 403.035 17.6841 405.37 16.3286C407.704 14.992 410.396 14.3142 413.427 14.3142C416.119 14.3142 418.604 14.8602 420.882 15.9521C423.16 17.044 425.137 18.5125 426.775 20.3575C428.432 22.2025 429.712 24.3863 430.653 26.8902C431.595 29.3941 432.065 32.0487 432.065 34.835C432.065 37.7154 431.632 40.4452 430.766 42.968C429.9 45.5095 428.695 47.7122 427.152 49.576C425.608 51.4586 423.763 52.9271 421.636 53.9814C419.508 55.0733 417.174 55.6005 414.632 55.6005ZM411.206 46.9215C412.731 46.9215 414.124 46.6014 415.423 45.9237C416.722 45.2648 417.814 44.3799 418.736 43.2692C419.64 42.1584 420.355 40.8594 420.864 39.3909C421.372 37.9225 421.617 36.3975 421.617 34.835C421.617 33.1594 421.334 31.5968 420.788 30.166C420.224 28.7164 419.452 27.4738 418.473 26.4007C417.475 25.3276 416.326 24.4993 414.971 23.8968C413.634 23.2944 412.166 22.9932 410.603 22.9932C409.643 22.9932 408.645 23.1626 407.629 23.4827C406.612 23.8215 405.671 24.2734 404.805 24.8946C403.939 25.4971 403.167 26.2125 402.489 27.022C401.811 27.8315 401.284 28.7164 400.927 29.6765V39.0332C401.849 41.3112 403.242 43.2127 405.106 44.7C407.007 46.1873 409.022 46.9215 411.206 46.9215Z" fill="#1B3764"/>
<path d="M454.017 55.6004C450.666 55.6004 447.409 55.0733 444.208 54.0002C441.008 52.9271 438.278 51.421 436 49.4442L439.803 43.062C442.232 44.7941 444.604 46.0931 446.919 46.9779C449.235 47.8628 451.513 48.3146 453.81 48.3146C455.843 48.3146 457.424 47.9381 458.592 47.1662C459.759 46.4131 460.343 45.3212 460.343 43.8904C460.343 42.4784 459.665 41.4241 458.29 40.7652C456.916 40.1063 454.695 39.3532 451.607 38.4872C449.028 37.7718 446.825 37.0941 444.999 36.4352C443.173 35.7762 441.704 35.0232 440.594 34.1948C439.483 33.3665 438.673 32.3875 438.165 31.3144C437.657 30.2225 437.412 28.9234 437.412 27.3985C437.412 25.3653 437.807 23.5391 438.598 21.92C439.389 20.301 440.481 18.9078 441.911 17.7782C443.323 16.6298 444.999 15.7638 446.9 15.1614C448.802 14.5589 450.873 14.2577 453.094 14.2577C456.088 14.2577 458.893 14.6907 461.491 15.5567C464.108 16.4227 466.499 17.8159 468.683 19.7362L464.578 25.8924C462.545 24.3675 460.587 23.2567 458.686 22.5413C456.784 21.8259 454.902 21.4682 453.019 21.4682C451.287 21.4682 449.856 21.8259 448.689 22.5413C447.522 23.2567 446.938 24.3863 446.938 25.9677C446.938 26.6831 447.07 27.2667 447.352 27.7185C447.635 28.1704 448.068 28.5846 448.689 28.9423C449.291 29.3 450.101 29.6388 451.08 29.9777C452.078 30.3166 453.301 30.6555 454.77 31.0132C457.5 31.7286 459.853 32.4251 461.811 33.1405C463.769 33.8559 465.35 34.6655 466.593 35.5691C467.835 36.4728 468.739 37.5271 469.342 38.732C469.925 39.918 470.208 41.3488 470.208 43.0244C470.208 46.9215 468.758 50.009 465.877 52.2681C462.922 54.4708 458.987 55.6004 454.017 55.6004Z" fill="#1B3764"/>
<path d="M478.736 34.5337V0.307373H488.921V34.5337H478.736ZM478.736 54.8286V43.3445H488.921V54.8286H478.736Z" fill="#1B3764"/>
<path d="M427.773 509.655H360.92V515.134H427.773V509.655Z" fill="#37474F"/>
<path d="M427.773 516.79H360.92V522.269H427.773V516.79Z" fill="#37474F"/>
<path d="M427.773 523.926H360.92V529.404H427.773V523.926Z" fill="#37474F"/>
<path d="M427.773 531.061H360.92V536.539H427.773V531.061Z" fill="#37474F"/>
<path d="M427.773 538.196H360.92V543.674H427.773V538.196Z" fill="#37474F"/>
<path d="M456.728 680.504H329.612V685.983H456.728V680.504Z" fill="#37474F"/>
<path d="M456.728 687.64H329.612V693.118H456.728V687.64Z" fill="#37474F"/>
<path d="M456.728 694.775H329.612V700.253H456.728V694.775Z" fill="#37474F"/>
<path d="M456.728 701.91H329.612V707.389H456.728V701.91Z" fill="#37474F"/>
<path d="M456.728 709.045H329.612V714.524H456.728V709.045Z" fill="#37474F"/>
<path d="M273.848 464.378C273.905 463.643 246.023 454.306 246.023 454.306L247.661 358.498L284.636 350.572L273.848 464.378Z" fill="#FFC727"/>
<path opacity="0.2" d="M273.848 464.378C273.905 463.643 246.023 454.306 246.023 454.306L247.661 358.498L284.636 350.572L273.848 464.378Z" fill="black"/>
<path d="M529.247 501.993C529.435 501.277 558.842 502.106 558.842 502.106L590.263 411.588L558.277 391.425L529.247 501.993Z" fill="#FFC727"/>
<path opacity="0.2" d="M529.247 501.993C529.435 501.277 558.842 502.106 558.842 502.106L590.263 411.588L558.277 391.425L529.247 501.993Z" fill="black"/>
<path d="M268.483 499.658C268.483 499.658 278.819 344.717 287.893 293.754C287.893 293.754 475.065 307.912 576.106 346.524C576.106 346.524 524.013 527.502 521.321 536.483C521.302 536.483 389.499 510.521 268.483 499.658Z" fill="#FFC727"/>
<path opacity="0.1" d="M435.548 314.444C432.498 333.101 429.43 351.758 426.248 370.378L416.609 426.254L416.082 425.463L478.792 440.355L510.119 447.942L541.409 455.68L509.95 448.639L478.529 441.447L415.762 426.781L415.122 426.631L415.235 425.991L425.231 370.17C428.582 351.608 432.047 333.026 435.548 314.444Z" fill="black"/>
<path opacity="0.1" d="M428.658 325.081C428.695 326.794 427.321 328.545 425.363 328.715C424.422 328.809 423.386 328.508 422.614 327.83C421.843 327.152 421.372 326.117 421.372 325.081C421.372 324.027 421.843 322.992 422.614 322.333C423.386 321.655 424.422 321.354 425.363 321.448C427.34 321.617 428.695 323.368 428.658 325.081ZM428.658 325.081C428.658 324.215 428.262 323.368 427.622 322.822C426.982 322.276 426.135 322.05 425.363 322.144C423.782 322.333 422.765 323.745 422.784 325.081C422.765 326.418 423.782 327.83 425.363 328.018C426.135 328.112 426.982 327.886 427.622 327.34C428.281 326.794 428.658 325.947 428.658 325.081Z" fill="black"/>
<path opacity="0.1" d="M425.382 348.125C425.42 349.838 424.045 351.589 422.087 351.758C421.146 351.852 420.111 351.551 419.339 350.873C418.567 350.196 418.096 349.16 418.096 348.125C418.096 347.07 418.567 346.035 419.339 345.376C420.111 344.698 421.146 344.397 422.087 344.491C424.045 344.661 425.42 346.43 425.382 348.125ZM425.382 348.125C425.382 347.259 424.987 346.411 424.347 345.866C423.706 345.32 422.859 345.094 422.087 345.188C420.506 345.376 419.489 346.788 419.508 348.125C419.489 349.461 420.506 350.873 422.087 351.062C422.859 351.156 423.706 350.93 424.347 350.384C424.987 349.838 425.363 348.991 425.382 348.125Z" fill="black"/>
<path opacity="0.1" d="M421.334 372.486C421.372 374.199 419.998 375.95 418.04 376.12C417.098 376.214 416.063 375.912 415.291 375.235C414.519 374.557 414.048 373.521 414.048 372.486C414.048 371.451 414.519 370.396 415.291 369.737C416.063 369.06 417.098 368.758 418.04 368.853C419.998 369.022 421.372 370.792 421.334 372.486ZM421.334 372.486C421.334 371.62 420.939 370.773 420.299 370.227C419.659 369.681 418.812 369.455 418.04 369.549C416.458 369.737 415.442 371.149 415.46 372.486C415.442 373.823 416.458 375.235 418.04 375.423C418.812 375.517 419.659 375.291 420.299 374.745C420.939 374.199 421.315 373.352 421.334 372.486Z" fill="black"/>
<path opacity="0.1" d="M417.287 396.847C417.324 398.561 415.95 400.311 413.992 400.481C413.051 400.575 412.015 400.274 411.243 399.596C410.471 398.918 410.001 397.883 410.001 396.847C410.001 395.812 410.471 394.758 411.243 394.099C412.015 393.421 413.051 393.12 413.992 393.214C415.95 393.383 417.324 395.134 417.287 396.847ZM417.287 396.847C417.287 395.981 416.891 395.134 416.251 394.588C415.611 394.042 414.764 393.816 413.992 393.91C412.41 394.099 411.394 395.511 411.413 396.847C411.394 398.184 412.41 399.596 413.992 399.784C414.764 399.878 415.611 399.652 416.251 399.107C416.891 398.561 417.268 397.713 417.287 396.847Z" fill="black"/>
<path opacity="0.1" d="M431.068 435.705C431.105 437.418 429.731 439.169 427.773 439.339C426.832 439.433 425.796 439.131 425.024 438.454C424.252 437.776 423.782 436.74 423.782 435.705C423.782 434.651 424.252 433.615 425.024 432.956C425.796 432.279 426.832 431.977 427.773 432.072C429.75 432.222 431.105 433.992 431.068 435.705ZM431.068 435.705C431.068 434.839 430.672 433.992 430.032 433.446C429.392 432.9 428.545 432.674 427.773 432.768C426.192 432.956 425.175 434.368 425.194 435.705C425.175 437.042 426.192 438.454 427.773 438.642C428.545 438.736 429.392 438.51 430.032 437.964C430.691 437.399 431.068 436.552 431.068 435.705Z" fill="black"/>
<path opacity="0.1" d="M454.073 441.315C454.111 443.029 452.737 444.779 450.779 444.949C449.837 445.043 448.802 444.742 448.03 444.064C447.258 443.386 446.788 442.351 446.788 441.315C446.788 440.261 447.258 439.226 448.03 438.567C448.802 437.889 449.837 437.588 450.779 437.682C452.737 437.832 454.092 439.602 454.073 441.315ZM454.073 441.315C454.073 440.449 453.678 439.602 453.038 439.056C452.398 438.51 451.551 438.284 450.779 438.378C449.197 438.567 448.181 439.979 448.2 441.315C448.181 442.652 449.197 444.064 450.779 444.252C451.551 444.346 452.398 444.12 453.038 443.575C453.678 443.01 454.055 442.163 454.073 441.315Z" fill="black"/>
<path opacity="0.1" d="M477.06 446.925C477.098 448.639 475.724 450.39 473.766 450.559C472.824 450.653 471.789 450.352 471.017 449.674C470.245 448.996 469.775 447.961 469.775 446.925C469.775 445.871 470.245 444.836 471.017 444.177C471.789 443.499 472.824 443.198 473.766 443.292C475.724 443.443 477.098 445.212 477.06 446.925ZM477.06 446.925C477.06 446.059 476.665 445.212 476.025 444.666C475.385 444.12 474.538 443.894 473.766 443.989C472.184 444.177 471.168 445.589 471.187 446.925C471.168 448.262 472.184 449.674 473.766 449.862C474.538 449.957 475.385 449.731 476.025 449.185C476.665 448.62 477.06 447.773 477.06 446.925Z" fill="black"/>
<path opacity="0.1" d="M500.047 452.517C500.085 454.23 498.711 455.981 496.753 456.151C495.811 456.245 494.776 455.943 494.004 455.266C493.232 454.588 492.761 453.552 492.761 452.517C492.761 451.463 493.232 450.427 494.004 449.768C494.776 449.091 495.811 448.789 496.753 448.884C498.729 449.053 500.085 450.823 500.047 452.517ZM500.047 452.517C500.047 451.651 499.652 450.804 499.012 450.258C498.372 449.712 497.525 449.486 496.753 449.58C495.171 449.768 494.155 451.18 494.173 452.517C494.155 453.854 495.171 455.266 496.753 455.454C497.525 455.548 498.372 455.322 499.012 454.776C499.671 454.23 500.047 453.383 500.047 452.517Z" fill="black"/>
<path opacity="0.1" d="M523.034 458.391C522.94 460.104 521.434 461.742 519.476 461.761C518.516 461.78 517.518 461.403 516.803 460.669C516.087 459.935 515.711 458.88 515.786 457.826C515.88 456.791 516.407 455.793 517.236 455.172C518.064 454.55 519.118 454.343 520.06 454.494C521.98 454.833 523.204 456.678 523.034 458.391ZM523.034 458.391C523.091 457.525 522.771 456.659 522.187 456.056C521.585 455.473 520.756 455.172 519.985 455.209C518.403 455.266 517.273 456.602 517.179 457.939C517.048 459.257 517.97 460.763 519.533 461.064C520.286 461.215 521.152 461.045 521.829 460.556C522.526 460.066 522.959 459.238 523.034 458.391Z" fill="black"/>
<path opacity="0.1" d="M413.239 421.209C413.277 422.922 411.902 424.673 409.944 424.842C409.003 424.936 407.968 424.635 407.196 423.957C406.424 423.28 405.953 422.244 405.953 421.209C405.953 420.173 406.424 419.119 407.196 418.46C407.968 417.782 409.003 417.481 409.944 417.575C411.902 417.745 413.277 419.495 413.239 421.209ZM413.239 421.209C413.239 420.343 412.844 419.495 412.203 418.95C411.563 418.404 410.716 418.178 409.944 418.272C408.363 418.46 407.346 419.872 407.365 421.209C407.346 422.545 408.363 423.957 409.944 424.146C410.716 424.24 411.563 424.014 412.203 423.468C412.844 422.922 413.22 422.075 413.239 421.209Z" fill="black"/>
<path opacity="0.2" d="M374.506 461.562C396.332 441.938 398.117 408.335 378.492 386.508C358.867 364.682 325.264 362.898 303.438 382.522C281.612 402.147 279.827 435.75 299.452 457.576C319.077 479.403 352.68 481.187 374.506 461.562Z" fill="black"/>
<path d="M378.818 437.136C387.151 415.121 376.06 390.519 354.045 382.186C332.031 373.853 307.429 384.944 299.096 406.959C290.763 428.973 301.854 453.575 323.868 461.908C345.883 470.241 370.485 459.15 378.818 437.136Z" fill="#263238"/>
<path d="M336.397 406.377L326.437 404.764L324.823 414.725L334.784 416.338L336.397 406.377Z" fill="#FFC727"/>
<path d="M328.057 394.802L318.096 393.188L316.483 403.149L326.443 404.762L328.057 394.802Z" fill="#FFC727"/>
<path d="M367.911 401.257L357.951 399.644L356.337 409.605L366.298 411.218L367.911 401.257Z" fill="#FFC727"/>
<path d="M321.639 434.43L311.678 432.817L310.065 442.777L320.025 444.391L321.639 434.43Z" fill="#FFC727"/>
<path d="M361.493 440.886L351.533 439.273L349.919 449.233L359.88 450.847L361.493 440.886Z" fill="#FFC727"/>
<path d="M333.215 426.09L323.254 424.476L321.641 434.437L331.601 436.051L333.215 426.09Z" fill="#FFC727"/>
<path d="M344.775 417.844L334.814 416.23L333.201 426.191L343.162 427.805L344.775 417.844Z" fill="#FFC727"/>
<path d="M356.332 409.616L346.372 408.003L344.758 417.964L354.719 419.577L356.332 409.616Z" fill="#FFC727"/>
<path d="M353.143 429.302L343.183 427.688L341.569 437.649L351.53 439.263L353.143 429.302Z" fill="#FFC727"/>
<path d="M522.729 477.986C541.333 455.282 538.008 421.796 515.304 403.193C492.601 384.589 459.114 387.914 440.511 410.617C421.907 433.321 425.232 466.808 447.936 485.411C470.639 504.014 504.126 500.69 522.729 477.986Z" fill="#FFC727"/>
<path opacity="0.2" d="M522.729 477.986C541.333 455.282 538.008 421.796 515.304 403.193C492.601 384.589 459.114 387.914 440.511 410.617C421.907 433.321 425.232 466.808 447.936 485.411C470.639 504.014 504.126 500.69 522.729 477.986Z" fill="black"/>
<path opacity="0.2" d="M533.332 456.621C533.088 457.676 532.805 458.673 532.504 459.69L428.902 437.588C429.147 435.743 429.486 433.898 429.919 432.015C436.697 403.456 465.35 385.815 493.929 392.593C522.451 399.389 540.11 428.043 533.332 456.621Z" fill="black"/>
<path d="M498.042 483.66C519.763 474.586 530.014 449.622 520.94 427.901C511.865 406.181 486.901 395.929 465.18 405.004C443.46 414.079 433.209 439.043 442.283 460.763C451.358 482.484 476.322 492.735 498.042 483.66Z" fill="#263238"/>
<path d="M492.342 421.033L482.524 418.7L470.907 467.586L480.724 469.919L492.342 421.033Z" fill="#FFC727"/>
<path d="M536.401 455.623L427.585 429.756C434.72 399.709 464.88 381.146 494.927 388.281C524.973 395.435 543.555 425.576 536.401 455.623Z" fill="#FFC727"/>
<path opacity="0.2" d="M536.401 455.623L427.585 429.756C434.72 399.709 464.88 381.146 494.927 388.281C524.973 395.435 543.555 425.576 536.401 455.623Z" fill="black"/>
<path opacity="0.1" d="M389.141 475.918C389.424 471.663 390.986 467.352 394.055 463.944C395.58 462.231 397.594 460.876 399.835 460.066C402.075 459.238 404.503 459.087 406.8 459.294C409.135 459.577 411.526 460.386 413.484 461.874C415.404 463.38 416.854 465.338 417.72 467.465C419.489 471.682 419.696 476.182 418.83 480.361C418.115 476.182 417.042 472.134 415.084 468.802C413.145 465.451 410.057 463.361 406.405 463.041C402.658 462.57 399.025 463.587 396.088 466.053C393.132 468.519 390.892 472.059 389.141 475.918Z" fill="black"/>
<path d="M283.036 367.516C283.469 361.83 284.109 356.182 284.655 350.516C285.257 344.868 285.879 339.201 286.575 333.572C287.234 327.924 287.968 322.295 288.684 316.647C289.399 310.999 290.209 305.389 290.962 299.741L291.169 298.235L292.694 298.329C304.95 299.101 317.187 300.099 329.405 301.341C335.524 301.962 341.623 302.678 347.704 303.469C353.785 304.335 359.885 305.144 365.928 306.255L329.179 303.977L292.468 301.605L294.2 300.193C293.371 305.822 292.6 311.451 291.715 317.061C290.849 322.671 289.983 328.301 289.06 333.911C288.157 339.521 287.196 345.131 286.199 350.723C285.144 356.314 284.184 361.924 283.036 367.516Z" fill="white"/>
<path d="M291.884 410.459C293.127 403.625 296.214 397.13 300.394 391.463C301.429 390.032 302.615 388.714 303.745 387.359C304.968 386.097 306.249 384.855 307.51 383.612C308.884 382.502 310.278 381.391 311.69 380.318C313.196 379.358 314.664 378.379 316.189 377.456C317.789 376.684 319.389 375.894 321.009 375.159L326.054 373.408L331.288 372.335C333.039 372.072 334.827 372.015 336.578 371.884C343.657 371.695 350.641 373.22 357.042 375.799C350.227 374.519 343.431 373.823 336.747 374.463C330.064 375.084 323.588 377.08 317.789 380.355C311.934 383.537 306.776 387.942 302.389 393.063C298.04 398.203 294.426 404.02 291.884 410.459Z" fill="white"/>
<path d="M438.485 424.823C440.65 418.234 444.622 412.21 449.536 407.183C450.76 405.922 452.115 404.773 453.414 403.587C454.808 402.495 456.238 401.46 457.669 400.406C459.194 399.483 460.719 398.579 462.263 397.713C463.882 396.979 465.482 396.207 467.12 395.511C468.814 394.965 470.509 394.4 472.222 393.892L477.456 392.856L482.784 392.517C484.553 392.498 486.323 392.706 488.093 392.819C495.134 393.609 501.836 396.076 507.823 399.521C501.252 397.318 494.625 395.68 487.904 395.379C481.202 395.078 474.5 396.151 468.306 398.598C462.075 400.952 456.333 404.604 451.306 409.047C446.279 413.528 441.912 418.799 438.485 424.823Z" fill="white"/>
<path d="M274.432 595.146C260.821 595.146 231.018 592.077 211.834 567.414C187.304 535.861 196.171 475.335 196.547 472.755L207.203 474.374C207.109 474.958 198.656 532.906 220.344 560.787C241.542 588.048 280.005 584.132 280.4 584.095L281.605 594.807C281.172 594.863 278.536 595.146 274.432 595.146Z" fill="#FFC727"/>
<path opacity="0.4" d="M274.432 595.146C260.821 595.146 231.018 592.077 211.834 567.414C187.304 535.861 196.171 475.335 196.547 472.755L207.203 474.374C207.109 474.958 198.656 532.906 220.344 560.787C241.542 588.048 280.005 584.132 280.4 584.095L281.605 594.807C281.172 594.863 278.536 595.146 274.432 595.146Z" fill="white"/>
<path d="M210.328 481.717C208.389 481.717 206.394 481.547 204.379 481.227C186.4 478.309 178.455 467.559 174.935 459.05C171.414 450.521 170.605 440.205 172.525 428.382L195.324 432.072C194.138 439.395 194.476 445.834 196.303 450.239C197.602 453.364 200.106 457.129 208.088 458.428C211.74 459.012 215.675 458.711 219.817 452.479C222.998 447.679 224.919 441.127 225.596 436.985L248.395 440.675C247.868 443.932 245.628 455.341 239.076 465.244C231.903 476.012 221.869 481.717 210.328 481.717Z" fill="#FFC727"/>
<path d="M296.948 625.983C296.911 625.494 277.633 622.406 277.633 622.406L268.276 559.507L291.621 550.282L296.948 625.983Z" fill="#FFC727"/>
<path opacity="0.2" d="M296.948 625.983C296.911 625.494 277.633 622.406 277.633 622.406L268.276 559.507L291.621 550.282L296.948 625.983Z" fill="black"/>
<path d="M487.453 626.096C487.509 625.607 506.844 622.952 506.844 622.952L517.594 560.279L494.456 550.546L487.453 626.096Z" fill="#FFC727"/>
<path opacity="0.2" d="M487.453 626.096C487.509 625.607 506.844 622.952 506.844 622.952L517.594 560.279L494.456 550.546L487.453 626.096Z" fill="black"/>
<path d="M288.928 536.219C288.928 536.219 444.792 529.554 497.431 538.328C497.431 538.328 481.974 689.146 481.127 692.064C481.127 692.064 326.092 691.65 301.862 692.064C301.862 692.064 288.721 591.776 288.928 536.219Z" fill="#FFC727"/>
<path opacity="0.2" d="M336.258 577.543C336.258 577.543 421.334 574.192 450.082 578.616C450.082 578.616 441.648 654.656 441.177 656.143C441.177 656.143 356.534 655.936 343.318 656.143C343.318 656.124 337.519 604.088 336.258 577.543Z" fill="black"/>
<path opacity="0.2" d="M347.893 656.105C345.954 656.105 344.391 656.124 343.318 656.143C343.318 656.143 337.519 604.088 336.258 577.543C336.258 577.543 338.197 577.468 341.567 577.355L347.893 656.105Z" fill="black"/>
<path d="M372.988 596.313C368.225 594.807 363.142 597.461 361.636 602.224C360.13 607.006 362.784 612.071 367.547 613.577C372.31 615.083 377.394 612.428 378.881 607.665C380.406 602.902 377.751 597.819 372.988 596.313ZM377.845 607.326C376.528 611.525 372.066 613.84 367.886 612.522C363.707 611.205 361.372 606.743 362.69 602.544C364.008 598.365 368.47 596.03 372.668 597.348C376.848 598.685 379.163 603.147 377.845 607.326ZM372.988 596.313C368.225 594.807 363.142 597.461 361.636 602.224C360.13 607.006 362.784 612.071 367.547 613.577C372.31 615.083 377.394 612.428 378.881 607.665C380.406 602.902 377.751 597.819 372.988 596.313ZM377.845 607.326C376.528 611.525 372.066 613.84 367.886 612.522C363.707 611.205 361.372 606.743 362.69 602.544C364.008 598.365 368.47 596.03 372.668 597.348C376.848 598.685 379.163 603.147 377.845 607.326ZM372.988 596.313C368.225 594.807 363.142 597.461 361.636 602.224C360.13 607.006 362.784 612.071 367.547 613.577C372.31 615.083 377.394 612.428 378.881 607.665C380.406 602.902 377.751 597.819 372.988 596.313ZM377.845 607.326C376.528 611.525 372.066 613.84 367.886 612.522C363.707 611.205 361.372 606.743 362.69 602.544C364.008 598.365 368.47 596.03 372.668 597.348C376.848 598.685 379.163 603.147 377.845 607.326ZM376 586.749C365.947 583.586 355.235 589.178 352.072 599.212C348.909 609.265 354.482 619.978 364.535 623.14C374.57 626.303 385.301 620.731 388.463 610.677C391.626 600.624 386.054 589.912 376 586.749ZM380.236 608.079C378.504 613.577 372.631 616.645 367.114 614.913C361.617 613.181 358.548 607.307 360.28 601.791C362.012 596.294 367.905 593.225 373.402 594.957C378.9 596.708 381.968 602.582 380.236 608.079ZM378.9 607.665C380.406 602.902 377.751 597.819 372.988 596.313C368.225 594.807 363.142 597.461 361.636 602.224C360.13 607.006 362.784 612.071 367.547 613.577C372.31 615.083 377.394 612.428 378.9 607.665ZM377.845 607.326C376.528 611.525 372.066 613.84 367.886 612.522C363.707 611.205 361.372 606.743 362.69 602.544C364.008 598.365 368.47 596.03 372.668 597.348C376.848 598.685 379.163 603.147 377.845 607.326ZM372.988 596.313C368.225 594.807 363.142 597.461 361.636 602.224C360.13 607.006 362.784 612.071 367.547 613.577C372.31 615.083 377.394 612.428 378.881 607.665C380.406 602.902 377.751 597.819 372.988 596.313ZM377.845 607.326C376.528 611.525 372.066 613.84 367.886 612.522C363.707 611.205 361.372 606.743 362.69 602.544C364.008 598.365 368.47 596.03 372.668 597.348C376.848 598.685 379.163 603.147 377.845 607.326ZM372.988 596.313C368.225 594.807 363.142 597.461 361.636 602.224C360.13 607.006 362.784 612.071 367.547 613.577C372.31 615.083 377.394 612.428 378.881 607.665C380.406 602.902 377.751 597.819 372.988 596.313ZM377.845 607.326C376.528 611.525 372.066 613.84 367.886 612.522C363.707 611.205 361.372 606.743 362.69 602.544C364.008 598.365 368.47 596.03 372.668 597.348C376.848 598.685 379.163 603.147 377.845 607.326Z" fill="#FFC727"/>
<path d="M368.263 623.479L361.278 621.277L360.111 626.341L366.324 628.318L368.263 623.479Z" fill="#FFC727"/>
<path d="M355.706 616.928L352.317 610.433L347.893 613.181L350.905 618.961L355.706 616.928Z" fill="#FFC727"/>
<path d="M351.451 603.41L353.654 596.407L348.57 595.24L346.612 601.452L351.451 603.41Z" fill="#FFC727"/>
<path d="M358.002 590.834L364.497 587.446L361.749 583.021L355.95 586.053L358.002 590.834Z" fill="#FFC727"/>
<path d="M371.52 586.58L378.504 588.782L379.69 583.718L373.459 581.741L371.52 586.58Z" fill="#FFC727"/>
<path d="M384.096 593.131L387.484 599.645L391.89 596.878L388.878 591.098L384.096 593.131Z" fill="#FFC727"/>
<path d="M388.351 606.648L386.148 613.652L391.212 614.819L393.17 608.606L388.351 606.648Z" fill="#FFC727"/>
<path d="M381.799 619.225L375.285 622.613L378.053 627.038L383.832 624.025L381.799 619.225Z" fill="#FFC727"/>
<path d="M403.75 622.933C400.926 621.088 397.161 621.898 395.316 624.722C393.471 627.546 394.281 631.311 397.105 633.156C399.929 635.001 403.694 634.192 405.539 631.368C407.365 628.544 406.574 624.759 403.75 622.933ZM404.918 630.953C403.299 633.438 399.985 634.135 397.519 632.516C395.034 630.897 394.337 627.583 395.956 625.117C397.575 622.632 400.889 621.936 403.355 623.555C405.821 625.174 406.518 628.468 404.918 630.953ZM403.75 622.933C400.926 621.088 397.161 621.898 395.316 624.722C393.471 627.546 394.281 631.311 397.105 633.156C399.929 635.001 403.694 634.192 405.539 631.368C407.365 628.544 406.574 624.759 403.75 622.933ZM404.918 630.953C403.299 633.438 399.985 634.135 397.519 632.516C395.034 630.897 394.337 627.583 395.956 625.117C397.575 622.632 400.889 621.936 403.355 623.555C405.821 625.174 406.518 628.468 404.918 630.953ZM403.75 622.933C400.926 621.088 397.161 621.898 395.316 624.722C393.471 627.546 394.281 631.311 397.105 633.156C399.929 635.001 403.694 634.192 405.539 631.368C407.365 628.544 406.574 624.759 403.75 622.933ZM404.918 630.953C403.299 633.438 399.985 634.135 397.519 632.516C395.034 630.897 394.337 627.583 395.956 625.117C397.575 622.632 400.889 621.936 403.355 623.555C405.821 625.174 406.518 628.468 404.918 630.953ZM407.44 617.267C401.491 613.388 393.547 615.083 389.668 621.013C385.809 626.962 387.484 634.907 393.415 638.785C399.345 642.645 407.309 640.969 411.187 635.02C415.046 629.108 413.371 621.145 407.44 617.267ZM406.33 631.876C404.202 635.133 399.835 636.055 396.596 633.947C393.339 631.838 392.417 627.452 394.544 624.214C396.672 620.957 401.039 620.034 404.278 622.161C407.516 624.251 408.438 628.619 406.33 631.876ZM405.539 631.368C407.384 628.544 406.574 624.778 403.769 622.933C400.945 621.088 397.18 621.898 395.335 624.722C393.49 627.546 394.3 631.311 397.124 633.156C399.929 634.982 403.694 634.173 405.539 631.368ZM404.918 630.953C403.299 633.438 399.985 634.135 397.519 632.516C395.034 630.897 394.337 627.583 395.956 625.117C397.575 622.632 400.889 621.936 403.355 623.555C405.821 625.174 406.518 628.468 404.918 630.953ZM403.75 622.933C400.926 621.088 397.161 621.898 395.316 624.722C393.471 627.546 394.281 631.311 397.105 633.156C399.929 635.001 403.694 634.192 405.539 631.368C407.365 628.544 406.574 624.759 403.75 622.933ZM404.918 630.953C403.299 633.438 399.985 634.135 397.519 632.516C395.034 630.897 394.337 627.583 395.956 625.117C397.575 622.632 400.889 621.936 403.355 623.555C405.821 625.174 406.518 628.468 404.918 630.953ZM403.75 622.933C400.926 621.088 397.161 621.898 395.316 624.722C393.471 627.546 394.281 631.311 397.105 633.156C399.929 635.001 403.694 634.192 405.539 631.368C407.365 628.544 406.574 624.759 403.75 622.933ZM404.918 630.953C403.299 633.438 399.985 634.135 397.519 632.516C395.034 630.897 394.337 627.583 395.956 625.117C397.575 622.632 400.889 621.936 403.355 623.555C405.821 625.174 406.518 628.468 404.918 630.953Z" fill="#DBDBDB"/>
<path d="M395.787 639.689L391.645 636.997L389.969 640.084L393.641 642.475L395.787 639.689Z" fill="#DBDBDB"/>
<path d="M388.802 633.175L387.786 628.336L384.435 629.334L385.338 633.627L388.802 633.175Z" fill="#DBDBDB"/>
<path d="M388.501 623.63L391.193 619.488L388.106 617.812L385.715 621.502L388.501 623.63Z" fill="#DBDBDB"/>
<path d="M395.015 616.664L399.853 615.648L398.856 612.278L394.563 613.2L395.015 616.664Z" fill="#DBDBDB"/>
<path d="M404.56 616.344L408.702 619.055L410.377 615.968L406.687 613.577L404.56 616.344Z" fill="#DBDBDB"/>
<path d="M411.526 622.877L412.542 627.696L415.912 626.717L415.009 622.425L411.526 622.877Z" fill="#DBDBDB"/>
<path d="M411.846 632.422L409.154 636.545L412.222 638.22L414.613 634.549L411.846 632.422Z" fill="#DBDBDB"/>
<path d="M405.313 639.387L400.493 640.404L401.472 643.774L405.765 642.851L405.313 639.387Z" fill="#DBDBDB"/>
<path d="M493.665 674.518L499.652 675.628L516.784 559.601L509.969 558.359L493.665 674.518Z" fill="#FFC727"/>
<path d="M441.196 656.124L450.101 578.597L509.969 558.34C509.969 558.34 493.665 675.76 493.665 674.499L441.196 656.124Z" fill="#FFC727"/>
<path opacity="0.4" d="M441.196 656.124L450.101 578.597L509.969 558.34C509.969 558.34 493.665 675.76 493.665 674.499L441.196 656.124Z" fill="white"/>
<path d="M296.082 581.741C295.103 575.322 294.576 568.845 294.181 562.369C293.993 559.131 293.917 555.874 293.842 552.636C293.786 549.398 293.729 546.141 293.823 542.903L293.842 542.055L294.67 542.018C306.569 541.378 318.448 540.606 330.346 540.079C342.245 539.495 354.143 538.949 366.041 538.591C354.181 539.664 342.301 540.587 330.422 541.434C318.542 542.357 306.663 543.034 294.783 543.844L295.631 542.94L295.574 552.636L295.687 562.331C295.706 565.569 295.762 568.808 295.857 572.046L296.082 581.741Z" fill="white"/>
<path d="M458.441 579.746C462.15 577.976 465.915 576.338 469.737 574.832C473.54 573.288 477.381 571.82 481.259 570.483C485.137 569.165 489.034 567.866 493.006 566.755C496.96 565.645 500.951 564.609 505.036 563.95L506.034 563.781L505.846 564.741C504.905 569.768 503.926 574.775 502.758 579.764C503.191 574.662 503.813 569.598 504.472 564.534L505.3 565.325C501.346 566.266 497.431 567.377 493.515 568.525C489.599 569.692 485.702 570.916 481.824 572.196L458.441 579.746Z" fill="white"/>
<path opacity="0.1" d="M321.988 536.539L322.985 555.93L323.851 575.321L325.357 614.123L326.525 652.924L326.995 672.334L327.315 691.744L326.299 672.353L325.433 652.961L323.946 614.16L322.778 575.359L322.308 555.949L321.988 536.539Z" fill="black"/>
<path opacity="0.1" d="M316.434 548.23C316.81 549.906 315.813 551.883 313.93 552.447C313.026 552.73 311.953 552.636 311.049 552.127C310.165 551.619 309.506 550.697 309.299 549.68C309.091 548.663 309.336 547.553 309.976 546.743C310.598 545.933 311.558 545.425 312.499 545.331C314.438 545.086 316.133 546.536 316.434 548.23ZM316.434 548.23C316.264 547.383 315.718 546.63 314.984 546.216C314.25 545.802 313.365 545.764 312.65 545.99C311.144 546.479 310.409 548.08 310.692 549.379C310.936 550.697 312.217 551.883 313.798 551.751C314.57 551.694 315.361 551.299 315.869 550.64C316.396 549.981 316.603 549.078 316.434 548.23Z" fill="black"/>
<path opacity="0.1" d="M317.77 571.481C318.147 573.156 317.149 575.133 315.267 575.698C314.363 575.98 313.29 575.886 312.386 575.378C311.501 574.87 310.842 573.947 310.635 572.93C310.428 571.914 310.673 570.803 311.313 569.994C311.934 569.184 312.894 568.676 313.836 568.582C315.775 568.337 317.469 569.786 317.77 571.481ZM317.77 571.481C317.601 570.634 317.055 569.881 316.321 569.466C315.587 569.052 314.702 569.015 313.986 569.24C312.48 569.73 311.746 571.33 312.028 572.629C312.273 573.947 313.553 575.133 315.135 575.001C315.907 574.926 316.697 574.55 317.206 573.891C317.714 573.232 317.921 572.309 317.77 571.481Z" fill="black"/>
<path opacity="0.1" d="M318.618 596.143C318.994 597.819 317.996 599.796 316.114 600.361C315.21 600.643 314.137 600.549 313.233 600.041C312.348 599.532 311.689 598.61 311.482 597.593C311.275 596.577 311.52 595.466 312.16 594.656C312.781 593.847 313.742 593.338 314.683 593.244C316.622 593.018 318.316 594.468 318.618 596.143ZM318.618 596.143C318.448 595.296 317.902 594.543 317.168 594.129C316.434 593.715 315.549 593.677 314.833 593.903C313.327 594.393 312.593 595.993 312.876 597.292C313.12 598.61 314.4 599.796 315.982 599.664C316.754 599.589 317.545 599.212 318.053 598.553C318.561 597.894 318.768 596.991 318.618 596.143Z" fill="black"/>
<path opacity="0.1" d="M319.465 620.825C319.841 622.5 318.844 624.477 316.961 625.042C316.057 625.324 314.984 625.23 314.08 624.722C313.196 624.214 312.537 623.291 312.33 622.274C312.122 621.258 312.367 620.147 312.988 619.337C313.61 618.528 314.57 618.02 315.511 617.925C317.469 617.681 319.164 619.149 319.465 620.825ZM319.465 620.825C319.295 619.978 318.749 619.225 318.015 618.81C317.281 618.396 316.396 618.358 315.681 618.584C314.175 619.074 313.44 620.674 313.723 621.973C313.967 623.291 315.248 624.477 316.829 624.345C317.601 624.289 318.392 623.893 318.9 623.235C319.408 622.576 319.615 621.672 319.465 620.825Z" fill="black"/>
<path opacity="0.1" d="M320.312 645.506C320.689 647.182 319.691 649.158 317.808 649.723C316.904 650.006 315.831 649.911 314.928 649.403C314.043 648.895 313.384 647.972 313.177 646.956C312.97 645.939 313.215 644.828 313.855 644.019C314.476 643.209 315.436 642.701 316.377 642.607C318.316 642.362 320.011 643.831 320.312 645.506ZM320.312 645.506C320.143 644.659 319.597 643.906 318.862 643.492C318.128 643.078 317.243 643.04 316.528 643.266C315.022 643.755 314.288 645.356 314.57 646.655C314.815 647.972 316.095 649.158 317.676 649.027C318.448 648.97 319.239 648.575 319.747 647.916C320.256 647.257 320.463 646.353 320.312 645.506Z" fill="black"/>
<path opacity="0.1" d="M321.159 670.188C321.536 671.863 320.538 673.84 318.655 674.405C317.752 674.687 316.679 674.593 315.775 674.085C314.89 673.576 314.231 672.654 314.024 671.637C313.817 670.621 314.062 669.51 314.683 668.7C315.304 667.891 316.264 667.382 317.206 667.288C319.164 667.044 320.858 668.512 321.159 670.188ZM321.159 670.188C320.99 669.34 320.444 668.587 319.71 668.173C318.975 667.759 318.091 667.721 317.375 667.947C315.869 668.437 315.135 670.037 315.417 671.336C315.662 672.654 316.942 673.84 318.524 673.708C319.295 673.633 320.086 673.256 320.594 672.597C321.103 671.938 321.31 671.035 321.159 670.188Z" fill="black"/>
<path d="M328.782 707.918L240.535 734.659L243.658 744.965L331.904 718.223L328.782 707.918Z" fill="#FFC727"/>
<path opacity="0.4" d="M328.782 707.918L240.535 734.659L243.658 744.965L331.904 718.223L328.782 707.918Z" fill="white"/>
<path d="M286.547 717.21L276.284 720.474L281.134 735.725L291.397 732.461L286.547 717.21Z" fill="#FFC727"/>
<path d="M242.954 760.084L220.193 661.471L151.458 677.775L185.289 773.864L242.954 760.084Z" fill="#FFC727"/>
<path d="M258.204 755.076L242.954 760.084L220.193 661.471L242.126 666.686L258.204 755.076Z" fill="#FFC727"/>
<path opacity="0.2" d="M258.204 755.076L242.954 760.084L220.193 661.471L242.126 666.686L258.204 755.076Z" fill="black"/>
<path d="M330.384 724.765C336.841 724.765 342.075 719.531 342.075 713.074C342.075 706.617 336.841 701.383 330.384 701.383C323.927 701.383 318.693 706.617 318.693 713.074C318.693 719.531 323.927 724.765 330.384 724.765Z" fill="#FFC727"/>
<path d="M450.764 707.637L447.62 717.936L535.811 744.862L538.955 734.563L450.764 707.637Z" fill="#FFC727"/>
<path opacity="0.4" d="M450.764 707.637L447.62 717.936L535.811 744.862L538.955 734.563L450.764 707.637Z" fill="white"/>
<path d="M493.045 716.973L488.161 732.212L498.417 735.499L503.3 720.26L493.045 716.973Z" fill="#FFC727"/>
<path d="M536.514 759.989L559.501 661.433L628.199 677.869L594.161 773.902L536.514 759.989Z" fill="#FFC727"/>
<path d="M521.284 754.944L536.514 759.989L559.501 661.433L537.55 666.611L521.284 754.944Z" fill="#FFC727"/>
<path opacity="0.2" d="M521.284 754.944L536.514 759.989L559.501 661.433L537.55 666.611L521.284 754.944Z" fill="black"/>
<path d="M437.506 712.773C437.487 719.23 442.721 724.483 449.179 724.502C455.636 724.52 460.889 719.287 460.907 712.829C460.926 706.372 455.692 701.119 449.235 701.1C442.778 701.082 437.525 706.315 437.506 712.773Z" fill="#FFC727"/>
<path d="M525.802 591.154C526.084 590.891 554.418 564.609 587.759 573.589C621.854 582.796 650.018 634.154 650.282 634.662L659.751 629.541C658.528 627.263 629.159 573.589 590.546 563.178C551.274 552.598 519.683 582.061 518.347 583.323L525.802 591.154Z" fill="#FFC727"/>
<path opacity="0.4" d="M525.802 591.154C526.084 590.891 554.418 564.609 587.759 573.589C621.854 582.796 650.018 634.154 650.282 634.662L659.751 629.541C658.528 627.263 629.159 573.589 590.546 563.178C551.274 552.598 519.683 582.061 518.347 583.323L525.802 591.154Z" fill="white"/>
<path d="M637.725 686.378L658.151 675.591C656.193 671.882 653.783 665.5 653.426 659.739C652.974 652.284 655.93 649.648 659.205 647.935C666.36 644.151 670.633 645.657 673.551 647.37C677.637 649.78 681.797 654.731 685.261 661.283L705.688 650.495C700.096 639.915 693.244 632.158 685.299 627.471C677.373 622.802 664.552 618.999 648.437 627.508C635.88 634.135 629.479 646.071 630.401 661.132C631.098 672.993 636.181 683.46 637.725 686.378Z" fill="#FFC727"/>
<path d="M530.113 555.177C534.537 552.127 539.074 549.247 543.612 546.385C548.149 543.505 552.761 540.775 557.374 538.026C562.005 535.315 566.636 532.623 571.362 530.044L578.422 526.185C580.812 524.961 583.166 523.681 585.594 522.495C583.392 524.038 581.133 525.488 578.892 526.975L572.096 531.287C567.559 534.148 562.946 536.897 558.334 539.645C553.703 542.356 549.071 545.049 544.346 547.628C539.639 550.226 534.933 552.786 530.113 555.177Z" fill="#263238"/>
<path d="M518.384 599.231C524.729 602.846 530.734 606.912 536.646 611.11C542.538 615.346 548.356 619.695 553.816 624.515C547.471 620.9 541.465 616.834 535.554 612.635C529.661 608.399 523.863 604.051 518.384 599.231Z" fill="#263238"/>
<path d="M528.795 593.809C533.69 595.296 538.51 596.972 543.31 598.685C548.13 600.379 552.874 602.205 557.637 604.032C562.382 605.895 567.126 607.778 571.814 609.774L578.836 612.786C581.151 613.859 583.505 614.857 585.802 615.986C583.354 615.252 580.944 614.424 578.516 613.652L571.305 611.129C566.486 609.435 561.741 607.609 556.978 605.782C552.234 603.919 547.49 602.036 542.802 600.04C538.077 598.045 533.389 596.012 528.795 593.809Z" fill="#263238"/>
<path d="M542.689 559.3C547.377 558.076 552.102 557.06 556.828 556.081C561.553 555.083 566.297 554.217 571.06 553.351C575.823 552.541 580.587 551.732 585.368 551.054L592.541 550.056C594.951 549.793 597.342 549.473 599.752 549.266C597.417 549.887 595.045 550.395 592.692 550.979L585.613 552.485C580.888 553.483 576.144 554.349 571.38 555.215C566.617 556.024 561.854 556.834 557.072 557.512C552.291 558.189 547.509 558.848 542.689 559.3Z" fill="#263238"/>
<path d="M429.712 588.613C430.503 584.81 431.783 581.082 433.44 577.562C435.096 574.022 437.111 570.634 439.652 567.621C442.194 564.647 445.338 562.011 449.122 560.561C452.887 559.149 457.217 559.168 461.001 560.674C464.823 562.162 467.854 565.381 469.473 569.09C470.321 570.935 470.848 572.912 471.074 574.945C471.262 576.978 471.187 579.068 470.377 581.101C469.963 582.099 469.323 583.097 468.306 583.774C467.817 584.113 467.195 584.32 466.612 584.414C466.028 584.49 465.426 584.471 464.729 584.245C463.468 583.718 462.846 582.701 462.3 581.779C461.811 580.837 461.434 579.858 461.19 578.879C460.135 574.945 460.022 570.954 460.211 567C460.776 559.131 462.846 551.261 467.082 544.484C469.229 541.133 471.902 538.064 475.253 535.805C478.548 533.546 482.407 531.983 486.342 531.531C488.281 531.061 490.276 531.098 492.253 531.004C493.251 530.891 494.23 531.136 495.209 531.192C496.188 531.324 497.186 531.305 498.146 531.588C502.062 532.284 505.733 533.866 509.159 535.767C512.567 537.744 515.617 540.267 518.384 542.996C521.133 545.764 523.637 548.795 525.651 552.127C521.208 545.783 515.466 540.267 508.707 536.558C505.3 534.788 501.704 533.338 497.92 532.755C496.998 532.491 496.019 532.548 495.077 532.435C494.117 532.416 493.176 532.19 492.234 532.322C490.333 532.454 488.413 532.454 486.568 532.943C482.765 533.47 479.244 534.995 476.157 537.123C473.05 539.25 470.528 542.187 468.513 545.387C464.522 551.864 462.564 559.507 462.075 567.113C461.867 570.916 461.962 574.794 462.903 578.39C463.355 580.122 464.164 582.061 465.35 582.607C465.501 582.626 465.595 582.701 465.783 582.701C465.972 582.682 466.16 582.72 466.348 582.682C466.706 582.626 467.045 582.532 467.346 582.306C467.967 581.911 468.457 581.233 468.777 580.442C469.436 578.842 469.567 576.94 469.398 575.114C469.21 573.269 468.739 571.443 467.986 569.749C466.499 566.36 463.863 563.442 460.437 562.011C457.029 560.561 453.038 560.448 449.517 561.672C445.959 562.952 442.909 565.4 440.349 568.224C435.228 573.966 431.764 581.139 429.712 588.613Z" fill="#263238"/>
<path d="M255.738 637.411C257.564 633.984 260.218 631.029 263.343 628.675C266.45 626.341 270.046 624.515 273.886 623.63C277.708 622.707 281.831 622.688 285.653 623.856C289.493 625.004 292.938 627.244 295.706 630.106C298.492 632.968 300.563 636.451 301.994 640.14C303.387 643.849 304.234 647.803 303.933 651.869C303.726 653.865 303.331 656.011 301.749 657.743C300.959 658.59 299.754 659.155 298.586 659.174C297.457 659.155 296.384 658.986 295.348 658.44C294.313 657.913 293.484 656.971 293.014 655.955C292.543 654.919 292.355 653.846 292.298 652.792C292.223 650.683 292.675 648.688 293.296 646.767C294.558 642.946 296.628 639.519 299.057 636.394C301.486 633.288 304.366 630.501 307.585 628.205C313.968 623.573 322.082 620.994 330.008 622.03C333.923 622.557 337.802 623.686 341.228 625.682C344.692 627.602 347.686 630.294 350.114 633.344C352.562 636.413 354.463 639.877 355.913 643.473C357.381 647.069 358.454 650.834 358.981 654.674C357.4 647.125 354.294 639.802 349.361 633.965C346.914 631.047 343.958 628.543 340.607 626.774C337.293 624.948 333.566 623.95 329.819 623.536C322.289 622.707 314.645 625.117 308.583 629.617C302.521 634.078 297.551 640.31 295.047 647.351C294.463 649.102 294.049 650.947 294.106 652.717C294.143 654.467 294.765 656.162 296.177 656.877C296.836 657.254 297.739 657.404 298.53 657.423C299.302 657.404 299.98 657.103 300.507 656.538C301.599 655.39 302.069 653.507 302.239 651.719C302.54 648.048 301.768 644.245 300.45 640.724C299.114 637.204 297.137 633.909 294.576 631.16C292.016 628.412 288.797 626.265 285.238 625.098C281.68 623.912 277.783 623.818 274.074 624.609C266.695 626.19 259.842 630.84 255.738 637.411Z" fill="#263238"/>
<path d="M168.647 182.754C168.44 175.016 166.783 167.203 163.187 160.407C161.38 157.037 158.989 153.931 155.845 151.841C152.701 149.808 148.804 148.96 145.151 149.563C141.48 150.146 138.223 152.349 135.964 155.286C134.816 156.755 133.931 158.411 133.31 160.143C132.707 161.875 132.368 163.758 132.632 165.471C132.764 166.318 133.065 167.109 133.573 167.636C133.818 167.919 134.119 168.088 134.458 168.239C134.609 168.333 134.816 168.333 135.004 168.389C135.192 168.427 135.305 168.37 135.456 168.389C136.736 168.145 137.997 166.45 138.845 164.888C140.633 161.612 141.65 157.865 142.346 154.119C143.683 146.626 143.608 138.738 141.273 131.49C140.087 127.894 138.336 124.467 135.814 121.643C133.31 118.838 130.26 116.523 126.702 115.092C125.026 114.169 123.162 113.717 121.355 113.134C120.451 112.776 119.491 112.776 118.55 112.569C117.608 112.437 116.667 112.174 115.726 112.193C111.904 111.854 108.063 112.418 104.355 113.322C96.9182 115.299 90.0278 119.29 84.1916 124.392C86.9402 121.625 90.0842 119.29 93.4165 117.257C96.7676 115.261 100.326 113.529 104.11 112.437C107.894 111.421 111.848 110.762 115.801 111.025C116.799 110.969 117.759 111.232 118.757 111.345C119.736 111.534 120.734 111.534 121.675 111.872C123.576 112.437 125.534 112.87 127.304 113.793C131.013 115.167 134.402 117.615 137.056 120.589C139.767 123.564 141.631 127.197 142.911 130.962C145.415 138.549 145.547 146.701 144.21 154.477C143.457 158.355 142.384 162.214 140.426 165.772C139.936 166.657 139.353 167.523 138.656 168.333C137.922 169.086 137.056 169.914 135.701 170.14C134.985 170.215 134.383 170.084 133.837 169.858C133.272 169.632 132.745 169.293 132.331 168.841C131.483 167.956 131.107 166.827 130.937 165.754C130.636 163.607 131.069 161.536 131.728 159.616C132.425 157.696 133.404 155.907 134.665 154.307C137.131 151.107 140.84 148.697 144.907 148.17C148.935 147.605 153.153 148.622 156.466 150.9C159.779 153.215 162.208 156.51 163.959 160.012C165.71 163.551 166.858 167.316 167.63 171.157C168.421 174.96 168.778 178.876 168.647 182.754Z" fill="#263238"/>
<path d="M584.371 280.971C576.784 279.371 568.82 279.145 561.365 281.065C557.675 282.044 554.079 283.644 551.33 286.205C548.619 288.784 546.887 292.38 546.624 296.07C546.323 299.76 547.716 303.45 550.05 306.33C551.199 307.78 552.611 309.041 554.154 310.039C555.698 311.018 557.449 311.79 559.162 311.94C560.009 312.016 560.857 311.884 561.478 311.526C561.798 311.357 562.043 311.093 562.269 310.811C562.382 310.679 562.438 310.491 562.532 310.321C562.607 310.152 562.589 310.02 562.645 309.888C562.702 308.589 561.346 306.97 560.028 305.765C557.261 303.261 553.853 301.398 550.389 299.854C543.405 296.804 535.723 295.034 528.136 295.618C524.371 295.938 520.625 296.842 517.292 298.63C513.979 300.4 511.004 302.828 508.802 305.972C507.503 307.384 506.637 309.098 505.639 310.717C505.093 311.507 504.848 312.449 504.434 313.296C504.095 314.181 503.606 315.028 503.417 315.969C502.212 319.603 501.836 323.462 501.855 327.303C502.043 335.003 504.302 342.627 507.917 349.499C505.884 346.186 504.34 342.571 503.135 338.862C501.968 335.134 501.12 331.275 500.932 327.34C500.819 323.424 501.102 319.433 502.288 315.63C502.476 314.651 502.947 313.766 503.285 312.844C503.7 311.94 503.926 310.961 504.472 310.133C505.469 308.42 506.335 306.612 507.653 305.106C509.856 301.812 513.019 299.101 516.539 297.218C520.079 295.279 524.032 294.319 528.005 293.942C535.968 293.283 543.913 295.053 551.161 298.159C554.757 299.797 558.259 301.736 561.271 304.485C562.024 305.163 562.72 305.935 563.342 306.801C563.906 307.704 564.509 308.721 564.415 310.095C564.302 310.811 564.057 311.357 563.718 311.846C563.36 312.336 562.909 312.788 562.363 313.07C561.29 313.672 560.104 313.785 559.049 313.691C556.884 313.484 554.983 312.58 553.27 311.488C551.575 310.359 550.05 308.985 548.789 307.384C546.247 304.24 544.779 300.08 545.212 295.994C545.607 291.928 547.584 288.087 550.559 285.376C553.59 282.684 557.355 281.103 561.177 280.218C565.017 279.333 568.971 279.107 572.868 279.258C576.727 279.352 580.605 279.917 584.371 280.971Z" fill="#263238"/>
<path d="M467.817 159.164C466.536 154.702 466.348 149.939 467.082 145.327C467.798 140.714 469.36 136.196 471.921 132.224C474.425 128.251 477.945 124.806 482.181 122.622C486.398 120.42 491.218 119.459 495.962 119.61C500.725 119.742 505.394 120.966 509.687 122.924C513.979 124.919 517.989 127.611 521.114 131.301C522.601 133.165 524.032 135.33 524.126 138.06C524.164 139.397 523.618 140.846 522.658 141.825C521.698 142.748 520.662 143.482 519.344 143.858C518.045 144.254 516.615 144.16 515.372 143.689C514.13 143.218 513.094 142.446 512.172 141.599C510.364 139.886 509.084 137.796 508.03 135.65C505.94 131.339 504.829 126.689 504.302 122.001C503.775 117.313 503.926 112.55 504.735 107.9C506.317 98.6187 511.098 89.6573 518.704 83.9341C522.488 81.1101 526.724 78.8322 531.318 77.6649C535.874 76.4224 540.675 76.1965 545.306 76.7613C549.956 77.3449 554.474 78.6815 558.748 80.5265C563.022 82.3715 567.107 84.6683 570.778 87.4923C563.135 82.315 554.343 78.6062 545.193 77.7026C540.637 77.2319 536.006 77.552 531.638 78.8322C527.233 80.037 523.204 82.315 519.627 85.1013C516.088 87.9441 513.075 91.427 510.873 95.3805C508.651 99.3341 507.201 103.702 506.43 108.182C504.961 117.125 505.902 126.632 509.687 134.822C510.666 136.836 511.852 138.775 513.414 140.263C514.939 141.75 516.954 142.729 518.836 142.126C519.759 141.882 520.681 141.242 521.378 140.583C522.037 139.905 522.394 139.02 522.376 138.041C522.357 136.064 521.152 134.05 519.777 132.356C516.935 128.929 513.075 126.293 508.99 124.392C504.886 122.491 500.405 121.323 495.887 121.116C491.368 120.909 486.794 121.775 482.765 123.79C478.717 125.766 475.272 128.967 472.768 132.77C467.723 140.357 465.765 150.109 467.817 159.164Z" fill="#263238"/>
<path d="M249.45 637.825C245.232 636.488 240.733 638.842 239.415 643.059C238.078 647.276 240.432 651.775 244.649 653.093C248.866 654.43 253.347 652.077 254.683 647.859C256.001 643.642 253.667 639.143 249.45 637.825ZM253.742 647.558C252.575 651.267 248.621 653.319 244.931 652.152C241.222 650.985 239.17 647.031 240.338 643.341C241.505 639.632 245.458 637.58 249.148 638.747C252.857 639.915 254.909 643.868 253.742 647.558ZM249.45 637.825C245.232 636.488 240.733 638.842 239.415 643.059C238.078 647.276 240.432 651.775 244.649 653.093C248.866 654.43 253.347 652.077 254.683 647.859C256.001 643.642 253.667 639.143 249.45 637.825ZM253.742 647.558C252.575 651.267 248.621 653.319 244.931 652.152C241.222 650.985 239.17 647.031 240.338 643.341C241.505 639.632 245.458 637.58 249.148 638.747C252.857 639.915 254.909 643.868 253.742 647.558ZM249.45 637.825C245.232 636.488 240.733 638.842 239.415 643.059C238.078 647.276 240.432 651.775 244.649 653.093C248.866 654.43 253.347 652.077 254.683 647.859C256.001 643.642 253.667 639.143 249.45 637.825ZM253.742 647.558C252.575 651.267 248.621 653.319 244.931 652.152C241.222 650.985 239.17 647.031 240.338 643.341C241.505 639.632 245.458 637.58 249.148 638.747C252.857 639.915 254.909 643.868 253.742 647.558ZM252.123 629.353C243.237 626.548 233.748 631.499 230.962 640.367C228.157 649.253 233.089 658.722 241.994 661.527C250.88 664.333 260.35 659.381 263.155 650.495C265.941 641.647 261.009 632.158 252.123 629.353ZM255.869 648.236C254.344 653.112 249.13 655.823 244.272 654.279C239.415 652.754 236.704 647.539 238.229 642.682C239.754 637.806 244.969 635.114 249.826 636.639C254.683 638.164 257.394 643.379 255.869 648.236ZM254.683 647.859C256.02 643.642 253.667 639.143 249.468 637.825C245.251 636.488 240.752 638.842 239.434 643.059C238.097 647.276 240.451 651.775 244.668 653.093C248.847 654.411 253.347 652.077 254.683 647.859ZM253.742 647.558C252.575 651.267 248.621 653.319 244.931 652.152C241.222 650.985 239.17 647.031 240.338 643.341C241.505 639.632 245.458 637.58 249.148 638.747C252.857 639.915 254.909 643.868 253.742 647.558ZM249.45 637.825C245.232 636.488 240.733 638.842 239.415 643.059C238.078 647.276 240.432 651.775 244.649 653.093C248.866 654.43 253.347 652.077 254.683 647.859C256.001 643.642 253.667 639.143 249.45 637.825ZM253.742 647.558C252.575 651.267 248.621 653.319 244.931 652.152C241.222 650.985 239.17 647.031 240.338 643.341C241.505 639.632 245.458 637.58 249.148 638.747C252.857 639.915 254.909 643.868 253.742 647.558ZM249.45 637.825C245.232 636.488 240.733 638.842 239.415 643.059C238.078 647.276 240.432 651.775 244.649 653.093C248.866 654.43 253.347 652.077 254.683 647.859C256.001 643.642 253.667 639.143 249.45 637.825ZM253.742 647.558C252.575 651.267 248.621 653.319 244.931 652.152C241.222 650.985 239.17 647.031 240.338 643.341C241.505 639.632 245.458 637.58 249.148 638.747C252.857 639.915 254.909 643.868 253.742 647.558Z" fill="#455A64"/>
<path d="M245.27 661.847L239.095 659.908L238.041 664.389L243.557 666.121L245.27 661.847Z" fill="#455A64"/>
<path d="M234.163 656.068L231.15 650.307L227.253 652.735L229.908 657.856L234.163 656.068Z" fill="#455A64"/>
<path d="M230.397 644.094L232.336 637.9L227.856 636.865L226.124 642.381L230.397 644.094Z" fill="#455A64"/>
<path d="M236.177 632.968L241.938 629.974L239.509 626.077L234.388 628.732L236.177 632.968Z" fill="#455A64"/>
<path d="M248.151 629.202L254.344 631.16L255.38 626.68L249.864 624.948L248.151 629.202Z" fill="#455A64"/>
<path d="M259.277 635.001L262.27 640.762L266.167 638.315L263.513 633.213L259.277 635.001Z" fill="#455A64"/>
<path d="M263.042 646.975L261.084 653.15L265.565 654.204L267.297 648.688L263.042 646.975Z" fill="#455A64"/>
<path d="M257.244 658.082L251.483 661.094L253.93 664.992L259.032 662.337L257.244 658.082Z" fill="#455A64"/>
<path d="M561.591 584.019C570.082 572.592 567.691 556.439 556.244 547.948C544.798 539.457 528.645 541.848 520.173 553.276C511.682 564.722 514.073 580.875 525.52 589.366C536.947 597.857 553.1 595.466 561.591 584.019ZM550.559 575.83C546.586 581.177 539.056 582.287 533.709 578.334C528.362 574.361 527.252 566.831 531.224 561.484C535.196 556.137 542.727 555.027 548.073 558.999C553.401 562.953 554.512 570.502 550.559 575.83Z" fill="#263238"/>
<path d="M530.132 591.474L522.168 585.563L518.422 591.512L525.501 596.783L530.132 591.474Z" fill="#263238"/>
<path d="M516.972 577.524L515.504 567.716L508.651 569.297L509.931 578.014L516.972 577.524Z" fill="#263238"/>
<path d="M517.499 558.378L523.411 550.414L517.443 546.668L512.19 553.746L517.499 558.378Z" fill="#263238"/>
<path d="M531.431 545.199L541.24 543.75L539.677 536.897L530.96 538.177L531.431 545.199Z" fill="#263238"/>
<path d="M550.596 545.745L558.56 551.657L562.306 545.689L555.228 540.436L550.596 545.745Z" fill="#263238"/>
<path d="M563.775 559.677L565.224 569.485L572.077 567.923L570.797 559.187L563.775 559.677Z" fill="#263238"/>
<path d="M563.229 578.842L557.317 586.805L563.285 590.552L568.538 583.473L563.229 578.842Z" fill="#263238"/>
<path d="M549.297 592.002L539.489 593.451L541.051 600.323L549.768 599.024L549.297 592.002Z" fill="#263238"/>
<path d="M531.638 569.899L537.117 576.809L545.833 575.51L549.071 567.32L543.593 560.411L534.876 561.691L531.638 569.899ZM542.03 566.36C543.273 567.283 543.536 569.033 542.614 570.276C541.691 571.518 539.941 571.782 538.698 570.86C537.456 569.937 537.192 568.186 538.114 566.944C539.037 565.701 540.788 565.438 542.03 566.36Z" fill="#263238"/>
<path d="M580.925 81.8443C577.235 80.6771 573.301 82.7292 572.133 86.4191C570.966 90.1091 573.018 94.0438 576.708 95.211C580.398 96.3783 584.333 94.3262 585.481 90.6362C586.667 86.9274 584.615 82.9927 580.925 81.8443ZM584.691 90.3727C583.674 93.6108 580.21 95.4181 576.972 94.4015C573.734 93.3849 571.926 89.9208 572.962 86.6827C573.978 83.4446 577.443 81.6372 580.681 82.6727C583.9 83.6705 585.707 87.1345 584.691 90.3727ZM580.925 81.8443C577.235 80.6771 573.301 82.7292 572.133 86.4191C570.966 90.1091 573.018 94.0438 576.708 95.211C580.398 96.3783 584.333 94.3262 585.481 90.6362C586.667 86.9274 584.615 82.9927 580.925 81.8443ZM584.691 90.3727C583.674 93.6108 580.21 95.4181 576.972 94.4015C573.734 93.3849 571.926 89.9208 572.962 86.6827C573.978 83.4446 577.443 81.6372 580.681 82.6727C583.9 83.6705 585.707 87.1345 584.691 90.3727ZM580.925 81.8443C577.235 80.6771 573.301 82.7292 572.133 86.4191C570.966 90.1091 573.018 94.0438 576.708 95.211C580.398 96.3783 584.333 94.3262 585.481 90.6362C586.667 86.9274 584.615 82.9927 580.925 81.8443ZM584.691 90.3727C583.674 93.6108 580.21 95.4181 576.972 94.4015C573.734 93.3849 571.926 89.9208 572.962 86.6827C573.978 83.4446 577.443 81.6372 580.681 82.6727C583.9 83.6705 585.707 87.1345 584.691 90.3727ZM583.26 74.4456C575.485 71.9981 567.182 76.3094 564.735 84.0847C562.287 91.86 566.599 100.162 574.374 102.61C582.149 105.057 590.433 100.746 592.899 92.9707C595.346 85.1766 591.035 76.893 583.26 74.4456ZM586.536 90.9563C585.199 95.211 580.643 97.5832 576.388 96.2465C572.134 94.9098 569.761 90.3538 571.098 86.0991C572.435 81.8443 576.991 79.4722 581.245 80.8089C585.5 82.1455 587.872 86.7015 586.536 90.9563ZM585.5 90.6174C586.667 86.9274 584.615 82.9927 580.925 81.8255C577.235 80.6583 573.301 82.7103 572.133 86.4003C570.966 90.0903 573.018 94.025 576.708 95.1922C580.398 96.3595 584.333 94.3074 585.5 90.6174ZM584.691 90.3727C583.674 93.6108 580.21 95.4181 576.972 94.4015C573.734 93.3849 571.926 89.9208 572.962 86.6827C573.978 83.4446 577.443 81.6372 580.681 82.6727C583.9 83.6705 585.707 87.1345 584.691 90.3727ZM580.925 81.8443C577.235 80.6771 573.301 82.7292 572.133 86.4191C570.966 90.1091 573.018 94.0438 576.708 95.211C580.398 96.3783 584.333 94.3262 585.481 90.6362C586.667 86.9274 584.615 82.9927 580.925 81.8443ZM584.691 90.3727C583.674 93.6108 580.21 95.4181 576.972 94.4015C573.734 93.3849 571.926 89.9208 572.962 86.6827C573.978 83.4446 577.443 81.6372 580.681 82.6727C583.9 83.6705 585.707 87.1345 584.691 90.3727ZM580.925 81.8443C577.235 80.6771 573.301 82.7292 572.133 86.4191C570.966 90.1091 573.018 94.0438 576.708 95.211C580.398 96.3783 584.333 94.3262 585.481 90.6362C586.667 86.9274 584.615 82.9927 580.925 81.8443ZM584.691 90.3727C583.674 93.6108 580.21 95.4181 576.972 94.4015C573.734 93.3849 571.926 89.9208 572.962 86.6827C573.978 83.4446 577.443 81.6372 580.681 82.6727C583.9 83.6705 585.707 87.1345 584.691 90.3727Z" fill="#263238"/>
<path d="M577.273 102.873L571.851 101.16L570.947 105.095L575.767 106.601L577.273 102.873Z" fill="#263238"/>
<path d="M567.54 97.7903L564.923 92.7637L561.497 94.8911L563.831 99.3717L567.54 97.7903Z" fill="#263238"/>
<path d="M564.245 87.3228L565.958 81.9197L562.024 81.016L560.499 85.8167L564.245 87.3228Z" fill="#263238"/>
<path d="M569.31 77.5896L574.355 74.9728L572.209 71.5652L567.747 73.8808L569.31 77.5896Z" fill="#263238"/>
<path d="M579.777 74.295L585.199 76.0082L586.103 72.0735L581.283 70.5674L579.777 74.295Z" fill="#263238"/>
<path d="M589.51 79.3782L592.146 84.4048L595.554 82.2774L593.219 77.7968L589.51 79.3782Z" fill="#263238"/>
<path d="M592.805 89.8456L591.11 95.2487L595.026 96.1712L596.551 91.3517L592.805 89.8456Z" fill="#263238"/>
<path d="M587.741 99.5789L582.695 102.196L584.841 105.622L589.322 103.288L587.741 99.5789Z" fill="#263238"/>
<path d="M508.971 350.798C505.281 349.631 501.347 351.683 500.179 355.373C499.012 359.063 501.064 362.998 504.754 364.165C508.444 365.332 512.379 363.28 513.527 359.59C514.713 355.9 512.661 351.965 508.971 350.798ZM512.736 359.326C511.72 362.565 508.256 364.372 505.018 363.355C501.78 362.339 499.972 358.875 501.008 355.636C502.024 352.398 505.488 350.591 508.726 351.626C511.965 352.643 513.753 356.088 512.736 359.326ZM508.971 350.798C505.281 349.631 501.347 351.683 500.179 355.373C499.012 359.063 501.064 362.998 504.754 364.165C508.444 365.332 512.379 363.28 513.527 359.59C514.713 355.9 512.661 351.965 508.971 350.798ZM512.736 359.326C511.72 362.565 508.256 364.372 505.018 363.355C501.78 362.339 499.972 358.875 501.008 355.636C502.024 352.398 505.488 350.591 508.726 351.626C511.965 352.643 513.753 356.088 512.736 359.326ZM508.971 350.798C505.281 349.631 501.347 351.683 500.179 355.373C499.012 359.063 501.064 362.998 504.754 364.165C508.444 365.332 512.379 363.28 513.527 359.59C514.713 355.9 512.661 351.965 508.971 350.798ZM512.736 359.326C511.72 362.565 508.256 364.372 505.018 363.355C501.78 362.339 499.972 358.875 501.008 355.636C502.024 352.398 505.488 350.591 508.726 351.626C511.965 352.643 513.753 356.088 512.736 359.326ZM511.306 343.399C503.53 340.952 495.228 345.263 492.781 353.038C490.333 360.814 494.644 369.116 502.42 371.564C510.195 374.011 518.479 369.7 520.945 361.924C523.411 354.149 519.081 345.847 511.306 343.399ZM514.581 359.91C513.245 364.165 508.689 366.537 504.434 365.2C500.179 363.864 497.807 359.308 499.144 355.053C500.481 350.798 505.036 348.426 509.291 349.763C513.565 351.099 515.937 355.655 514.581 359.91ZM513.546 359.59C514.713 355.9 512.661 351.965 508.971 350.798C505.281 349.631 501.347 351.683 500.179 355.373C499.012 359.063 501.064 362.998 504.754 364.165C508.463 365.332 512.379 363.28 513.546 359.59ZM512.736 359.326C511.72 362.565 508.256 364.372 505.018 363.355C501.78 362.339 499.972 358.875 501.008 355.636C502.024 352.398 505.488 350.591 508.726 351.626C511.965 352.643 513.753 356.088 512.736 359.326ZM508.971 350.798C505.281 349.631 501.347 351.683 500.179 355.373C499.012 359.063 501.064 362.998 504.754 364.165C508.444 365.332 512.379 363.28 513.527 359.59C514.713 355.9 512.661 351.965 508.971 350.798ZM512.736 359.326C511.72 362.565 508.256 364.372 505.018 363.355C501.78 362.339 499.972 358.875 501.008 355.636C502.024 352.398 505.488 350.591 508.726 351.626C511.965 352.643 513.753 356.088 512.736 359.326ZM508.971 350.798C505.281 349.631 501.347 351.683 500.179 355.373C499.012 359.063 501.064 362.998 504.754 364.165C508.444 365.332 512.379 363.28 513.527 359.59C514.713 355.9 512.661 351.965 508.971 350.798ZM512.736 359.326C511.72 362.565 508.256 364.372 505.018 363.355C501.78 362.339 499.972 358.875 501.008 355.636C502.024 352.398 505.488 350.591 508.726 351.626C511.965 352.643 513.753 356.088 512.736 359.326Z" fill="#263238"/>
<path d="M505.319 371.827L499.916 370.133L498.993 374.048L503.813 375.573L505.319 371.827Z" fill="#263238"/>
<path d="M495.586 366.763L492.969 361.717L489.561 363.863L491.877 368.344L495.586 366.763Z" fill="#263238"/>
<path d="M492.291 356.295L494.004 350.873L490.069 349.97L488.563 354.789L492.291 356.295Z" fill="#263238"/>
<path d="M497.374 346.562L502.401 343.945L500.273 340.519L495.793 342.853L497.374 346.562Z" fill="#263238"/>
<path d="M507.842 343.267L513.245 344.981L514.167 341.046L509.348 339.521L507.842 343.267Z" fill="#263238"/>
<path d="M517.575 348.332L520.192 353.377L523.618 351.231L521.284 346.769L517.575 348.332Z" fill="#263238"/>
<path d="M520.869 358.799L519.156 364.221L523.091 365.125L524.597 360.305L520.869 358.799Z" fill="#263238"/>
<path d="M515.786 368.532L510.76 371.168L512.887 374.576L517.368 372.241L515.786 368.532Z" fill="#263238"/>
<path d="M97.2382 139.058C100.138 127.141 92.8329 115.129 80.9158 112.23C68.9987 109.331 56.9875 116.636 54.0882 128.553C51.1889 140.47 58.4936 152.481 70.4107 155.38C82.3089 158.28 94.339 150.975 97.2382 139.058ZM85.7353 136.253C84.3798 141.825 78.7696 145.233 73.2158 143.877C67.6432 142.522 64.2356 136.912 65.5911 131.339C66.9466 125.766 72.5569 122.359 78.1295 123.714C83.6833 125.089 87.0908 130.68 85.7353 136.253Z" fill="#263238"/>
<path d="M74.7596 155.493L66.476 153.479L65.497 159.447L72.8769 161.254L74.7596 155.493Z" fill="#263238"/>
<path d="M59.6608 148.847L55.2178 141.562L50.3041 145.101L54.2388 151.577L59.6608 148.847Z" fill="#263238"/>
<path d="M53.674 133.466L55.6884 125.164L49.7017 124.204L47.9131 131.584L53.674 133.466Z" fill="#263238"/>
<path d="M60.3198 118.349L67.6056 113.925L64.0662 108.992L57.5711 112.946L60.3198 118.349Z" fill="#263238"/>
<path d="M75.7009 112.362L83.9845 114.395L84.9634 108.408L77.5835 106.601L75.7009 112.362Z" fill="#263238"/>
<path d="M90.7996 119.008L95.2426 126.312L100.156 122.754L96.2216 116.278L90.7996 119.008Z" fill="#263238"/>
<path d="M96.7864 134.389L94.772 142.691L100.759 143.67L102.547 136.29L96.7864 134.389Z" fill="#263238"/>
<path d="M90.1407 149.506L82.8549 153.949L86.3943 158.863L92.8894 154.91L90.1407 149.506Z" fill="#263238"/>
<path d="M68.7351 137.872L75.3997 141.524L81.8948 137.571L81.7253 129.983L75.0796 126.331L68.5845 130.266L68.7351 137.872ZM75.795 131.584C77.0941 131.904 77.8848 133.203 77.5647 134.483C77.2447 135.763 75.9456 136.573 74.6655 136.253C73.3853 135.933 72.5757 134.634 72.8958 133.353C73.197 132.073 74.5148 131.283 75.795 131.584Z" fill="#263238"/>
<path d="M599.093 368.627C594.029 360.908 591.186 352.248 591.186 343.079C591.186 310.698 626.73 284.454 670.558 284.454C714.386 284.454 749.892 310.698 749.892 343.079C749.892 375.461 714.367 401.705 670.558 401.705C649.303 401.705 630.044 395.548 615.811 385.476L588.475 392.423L599.093 368.627Z" fill="white"/>
<path d="M599.093 368.627C594.311 361.51 591.318 353.095 590.998 344.472C590.753 335.85 592.88 327.133 597.304 319.678C601.634 312.166 607.791 305.841 614.757 300.739C621.722 295.618 629.573 291.74 637.781 289.029C645.971 286.299 654.518 284.642 663.14 283.964C671.763 283.324 680.461 283.87 688.989 285.282C691.097 285.715 693.262 285.998 695.352 286.563L701.621 288.257L707.74 290.422C709.773 291.156 711.712 292.154 713.708 293.001C721.521 296.71 728.863 301.586 735.019 307.742C741.176 313.861 746.127 321.354 748.744 329.731C751.361 338.071 751.549 347.24 749.007 355.636C746.541 364.052 741.684 371.62 735.622 377.833C729.541 384.064 722.274 389.016 714.499 392.819C706.723 396.659 698.346 399.182 689.855 400.707C681.345 402.175 672.666 402.797 664.044 402.194C655.421 401.648 646.874 400.067 638.666 397.375C630.477 394.682 622.588 390.917 615.585 385.872L615.943 385.928L588.55 392.668L588.136 392.762L588.305 392.386L599.093 368.627ZM599.093 368.627L588.663 392.517L588.418 392.235L615.698 385.062L615.886 385.006L616.056 385.119C630.138 394.833 647.119 399.897 664.1 400.801C672.61 401.328 681.176 400.632 689.554 399.125C697.913 397.563 706.14 395.097 713.764 391.294C721.389 387.547 728.468 382.671 734.379 376.59C740.272 370.528 744.922 363.205 747.257 355.109C749.685 347.033 749.44 338.279 746.955 330.259C744.47 322.22 739.707 314.972 733.758 308.985C727.79 302.979 720.636 298.197 712.993 294.526C711.035 293.679 709.152 292.7 707.156 291.985L701.151 289.838L694.995 288.163C692.942 287.617 690.815 287.316 688.744 286.883C680.366 285.452 671.8 284.943 663.291 285.489C654.8 286.092 646.366 287.636 638.252 290.271C630.138 292.888 622.362 296.635 615.453 301.624C608.544 306.575 602.444 312.769 598.058 320.092C593.577 327.359 591.355 335.925 591.449 344.472C591.581 353.02 594.424 361.435 599.093 368.627Z" fill="#263238"/>
<path d="M629.723 352.681V357.048H611.97V331.463H629.403V335.831H616.94V341.987H627.709V346.016H616.94V352.681H629.723Z" fill="#263238"/>
<path d="M633.602 357.03V331.463H644.916C646.084 331.463 647.176 331.708 648.173 332.198C649.171 332.687 650.037 333.346 650.753 334.137C651.468 334.946 652.033 335.85 652.447 336.867C652.861 337.883 653.068 338.919 653.068 339.954C653.068 341.611 652.654 343.117 651.826 344.472C650.997 345.828 649.868 346.807 648.456 347.409L654.292 357.03H648.7L643.486 348.464H638.591V357.03H633.602ZM638.591 344.096H644.822C645.274 344.096 645.707 343.983 646.102 343.776C646.498 343.569 646.837 343.268 647.138 342.891C647.42 342.514 647.646 342.081 647.816 341.573C647.985 341.065 648.06 340.519 648.06 339.954C648.06 339.352 647.966 338.806 647.778 338.297C647.59 337.789 647.326 337.356 647.006 336.98C646.686 336.603 646.309 336.321 645.895 336.113C645.481 335.906 645.048 335.812 644.615 335.812H638.591V344.096Z" fill="#263238"/>
<path d="M657.568 357.03V331.463H668.882C670.05 331.463 671.142 331.708 672.139 332.198C673.137 332.687 674.003 333.346 674.719 334.137C675.434 334.946 675.999 335.85 676.413 336.867C676.827 337.883 677.034 338.919 677.034 339.954C677.034 341.611 676.62 343.117 675.792 344.472C674.963 345.828 673.834 346.807 672.422 347.409L678.258 357.03H672.666L667.452 348.464H662.557V357.03H657.568ZM662.538 344.096H668.769C669.221 344.096 669.654 343.983 670.05 343.776C670.445 343.569 670.784 343.268 671.085 342.891C671.367 342.514 671.593 342.081 671.763 341.573C671.932 341.065 672.008 340.519 672.008 339.954C672.008 339.352 671.913 338.806 671.725 338.297C671.537 337.789 671.273 337.356 670.953 336.98C670.633 336.603 670.257 336.321 669.843 336.113C669.428 335.906 668.995 335.812 668.562 335.812H662.538V344.096Z" fill="#263238"/>
<path d="M692.453 357.218C690.57 357.218 688.876 356.86 687.351 356.126C685.826 355.392 684.508 354.413 683.416 353.208C682.324 352.003 681.477 350.61 680.875 349.047C680.272 347.485 679.971 345.884 679.971 344.247C679.971 342.533 680.291 340.914 680.931 339.352C681.571 337.789 682.437 336.415 683.567 335.21C684.678 334.005 686.014 333.045 687.558 332.348C689.102 331.633 690.759 331.275 692.566 331.275C694.411 331.275 696.105 331.652 697.63 332.405C699.155 333.158 700.454 334.156 701.546 335.379C702.619 336.603 703.466 337.996 704.069 339.559C704.671 341.121 704.972 342.703 704.972 344.322C704.972 346.035 704.652 347.654 704.031 349.198C703.41 350.742 702.544 352.116 701.433 353.302C700.322 354.488 699.005 355.448 697.461 356.145C695.917 356.86 694.241 357.218 692.453 357.218ZM685.017 344.247C685.017 345.357 685.186 346.412 685.525 347.447C685.864 348.482 686.353 349.386 686.993 350.177C687.633 350.968 688.405 351.608 689.328 352.078C690.25 352.568 691.305 352.794 692.472 352.794C693.677 352.794 694.731 352.549 695.653 352.059C696.576 351.57 697.367 350.911 697.988 350.102C698.628 349.292 699.099 348.369 699.438 347.353C699.758 346.336 699.927 345.301 699.927 344.228C699.927 343.117 699.758 342.063 699.4 341.027C699.042 339.992 698.553 339.088 697.931 338.297C697.291 337.507 696.519 336.867 695.597 336.415C694.675 335.944 693.639 335.718 692.472 335.718C691.267 335.718 690.194 335.963 689.271 336.452C688.33 336.942 687.558 337.601 686.937 338.392C686.316 339.201 685.845 340.105 685.506 341.121C685.186 342.157 685.017 343.192 685.017 344.247Z" fill="#263238"/>
<path d="M708.757 357.03V331.463H720.071C721.238 331.463 722.33 331.708 723.328 332.198C724.326 332.687 725.192 333.346 725.907 334.137C726.623 334.946 727.188 335.85 727.602 336.867C728.016 337.883 728.223 338.919 728.223 339.954C728.223 341.611 727.809 343.117 726.981 344.472C726.152 345.828 725.023 346.807 723.611 347.409L729.447 357.03H723.855L718.64 348.464H713.746V357.03H708.757ZM713.746 344.096H719.977C720.429 344.096 720.862 343.983 721.257 343.776C721.653 343.569 721.992 343.268 722.293 342.891C722.575 342.514 722.801 342.081 722.97 341.573C723.14 341.065 723.215 340.519 723.215 339.954C723.215 339.352 723.121 338.806 722.933 338.297C722.745 337.789 722.481 337.356 722.161 336.98C721.841 336.603 721.464 336.321 721.05 336.113C720.636 335.906 720.203 335.812 719.77 335.812H713.746V344.096Z" fill="#263238"/>
</g>
<defs>
<clipPath id="clip0_9_725">
<rect width="778" height="803.547" fill="white" transform="translate(0 0.307373)"/>
</clipPath>
</defs>
</svg>
