<svg width="119.000000" height="35.000000" viewBox="0 0 119 35" fill="none" xmlns="http://www.w3.org/2000/svg" xmlns:xlink="http://www.w3.org/1999/xlink">
	<desc>
			Created with Pixso.
	</desc>
	<defs>
		<clipPath id="clip1_23">
			<rect id="IMAGE" width="119.000000" height="35.000000" fill="white" fill-opacity="0"/>
		</clipPath>
	</defs>
	<g clip-path="url(#clip1_23)">
		<path id="Vector" d="M35.01 28L35.01 7.63L43.05 7.63C44.59 7.63 45.91 7.93 47 8.52C48.08 9.1 48.91 9.91 49.48 10.95C50.06 11.99 50.35 13.18 50.35 14.53C50.35 15.88 50.06 17.08 49.47 18.11C48.89 19.15 48.04 19.95 46.94 20.53C45.84 21.1 44.5 21.39 42.94 21.39L37.82 21.39L37.82 17.94L42.24 17.94C43.07 17.94 43.75 17.8 44.29 17.51C44.84 17.22 45.24 16.82 45.5 16.31C45.78 15.79 45.91 15.2 45.91 14.53C45.91 13.86 45.78 13.27 45.5 12.76C45.24 12.25 44.84 11.86 44.29 11.58C43.75 11.29 43.06 11.15 42.22 11.15L39.32 11.15L39.32 28L35.01 28ZM57.01 28.28C56.03 28.28 55.17 28.11 54.4 27.78C53.64 27.43 53.04 26.92 52.59 26.25C52.16 25.58 51.94 24.74 51.94 23.73C51.94 22.88 52.09 22.17 52.41 21.59C52.72 21.01 53.14 20.55 53.68 20.2C54.22 19.85 54.83 19.58 55.51 19.4C56.2 19.23 56.92 19.1 57.68 19.03C58.56 18.93 59.28 18.85 59.82 18.77C60.37 18.68 60.76 18.56 61.01 18.39C61.25 18.22 61.37 17.98 61.37 17.65L61.37 17.59C61.37 16.96 61.18 16.48 60.78 16.13C60.39 15.79 59.83 15.62 59.11 15.62C58.34 15.62 57.74 15.78 57.29 16.12C56.84 16.45 56.54 16.87 56.39 17.38L52.48 17.06C52.67 16.13 53.07 15.33 53.65 14.65C54.23 13.97 54.98 13.44 55.91 13.08C56.83 12.71 57.91 12.52 59.13 12.52C59.98 12.52 60.79 12.62 61.56 12.82C62.35 13.02 63.04 13.33 63.64 13.75C64.25 14.16 64.73 14.7 65.08 15.36C65.43 16.01 65.61 16.79 65.61 17.69L65.61 28L61.59 28L61.59 25.88L61.47 25.88C61.23 26.35 60.9 26.78 60.49 27.14C60.08 27.5 59.58 27.78 59.01 27.99C58.43 28.18 57.76 28.28 57.01 28.28ZM58.22 25.36C58.85 25.36 59.4 25.24 59.87 24.99C60.35 24.74 60.72 24.4 61 23.98C61.27 23.55 61.4 23.07 61.4 22.54L61.4 20.92C61.27 21 61.09 21.08 60.86 21.15C60.63 21.22 60.38 21.28 60.09 21.34C59.81 21.4 59.52 21.45 59.24 21.49C58.95 21.53 58.69 21.57 58.46 21.6C57.96 21.67 57.53 21.79 57.16 21.95C56.79 22.11 56.5 22.32 56.29 22.6C56.09 22.86 55.99 23.19 55.99 23.59C55.99 24.17 56.19 24.61 56.61 24.91C57.04 25.21 57.57 25.36 58.22 25.36ZM75.78 34.04C74.4 34.04 73.23 33.85 72.25 33.47C71.27 33.1 70.5 32.6 69.92 31.95C69.34 31.31 68.97 30.59 68.8 29.78L72.71 29.26C72.83 29.56 73.02 29.85 73.28 30.11C73.54 30.38 73.88 30.59 74.31 30.75C74.74 30.92 75.26 31 75.88 31C76.8 31 77.56 30.77 78.15 30.32C78.76 29.88 79.06 29.13 79.06 28.08L79.06 25.29L78.88 25.29C78.69 25.71 78.42 26.12 78.04 26.49C77.67 26.87 77.2 27.18 76.61 27.42C76.03 27.66 75.33 27.78 74.52 27.78C73.38 27.78 72.33 27.51 71.39 26.98C70.46 26.44 69.71 25.63 69.15 24.52C68.6 23.42 68.33 22.02 68.33 20.33C68.33 18.6 68.61 17.15 69.17 15.99C69.74 14.83 70.49 13.97 71.42 13.39C72.36 12.81 73.39 12.52 74.51 12.52C75.37 12.52 76.09 12.67 76.66 12.96C77.24 13.25 77.7 13.6 78.05 14.03C78.41 14.46 78.69 14.88 78.88 15.29L79.04 15.29L79.04 12.72L83.24 12.72L83.24 28.14C83.24 29.44 82.93 30.53 82.29 31.41C81.65 32.28 80.77 32.94 79.64 33.37C78.52 33.82 77.24 34.04 75.78 34.04ZM75.87 24.59C76.55 24.59 77.13 24.43 77.6 24.09C78.07 23.74 78.44 23.25 78.69 22.62C78.95 21.97 79.08 21.2 79.08 20.31C79.08 19.41 78.95 18.64 78.7 17.98C78.45 17.32 78.08 16.81 77.61 16.44C77.13 16.08 76.55 15.89 75.87 15.89C75.17 15.89 74.58 16.08 74.11 16.46C73.63 16.83 73.27 17.35 73.02 18.01C72.78 18.67 72.65 19.44 72.65 20.31C72.65 21.19 72.78 21.95 73.02 22.6C73.27 23.23 73.64 23.73 74.11 24.08C74.58 24.42 75.17 24.59 75.87 24.59ZM93.58 28.29C92 28.29 90.65 27.98 89.52 27.34C88.39 26.7 87.52 25.79 86.91 24.61C86.3 23.43 86 22.04 86 20.43C86 18.86 86.3 17.48 86.91 16.29C87.52 15.11 88.38 14.18 89.49 13.52C90.6 12.85 91.91 12.52 93.41 12.52C94.41 12.52 95.35 12.69 96.22 13.01C97.1 13.33 97.86 13.81 98.51 14.45C99.16 15.1 99.67 15.9 100.04 16.88C100.4 17.85 100.59 18.98 100.59 20.28L100.59 21.44L87.69 21.44L87.69 18.82L96.6 18.82C96.6 18.21 96.47 17.67 96.2 17.2C95.94 16.73 95.57 16.36 95.1 16.09C94.63 15.82 94.09 15.69 93.48 15.69C92.83 15.69 92.26 15.83 91.77 16.13C91.28 16.42 90.89 16.82 90.61 17.32C90.33 17.81 90.19 18.35 90.18 18.96L90.18 21.45C90.18 22.21 90.32 22.86 90.6 23.41C90.89 23.96 91.29 24.39 91.81 24.68C92.32 24.98 92.94 25.13 93.64 25.13C94.12 25.13 94.55 25.07 94.94 24.93C95.33 24.8 95.66 24.6 95.94 24.34C96.22 24.07 96.43 23.75 96.58 23.36L100.5 23.62C100.3 24.56 99.89 25.38 99.27 26.09C98.66 26.78 97.87 27.33 96.91 27.72C95.95 28.1 94.83 28.29 93.58 28.29ZM116.06 17.08L112.18 17.32C112.11 16.98 111.97 16.69 111.75 16.42C111.53 16.15 111.24 15.93 110.89 15.77C110.54 15.61 110.11 15.53 109.62 15.53C108.97 15.53 108.41 15.67 107.96 15.94C107.51 16.22 107.29 16.58 107.29 17.04C107.29 17.4 107.43 17.71 107.72 17.96C108.02 18.21 108.52 18.42 109.23 18.57L111.99 19.13C113.48 19.43 114.58 19.92 115.31 20.6C116.04 21.27 116.41 22.16 116.41 23.26C116.41 24.26 116.11 25.14 115.52 25.9C114.94 26.65 114.13 27.24 113.11 27.67C112.1 28.08 110.93 28.29 109.6 28.29C107.58 28.29 105.97 27.87 104.77 27.03C103.58 26.18 102.88 25.03 102.67 23.57L106.84 23.35C106.97 23.97 107.27 24.44 107.75 24.76C108.24 25.08 108.86 25.24 109.61 25.24C110.36 25.24 110.95 25.1 111.4 24.81C111.86 24.52 112.09 24.15 112.1 23.69C112.09 23.31 111.93 22.99 111.61 22.75C111.29 22.49 110.8 22.3 110.14 22.17L107.5 21.64C106 21.34 104.89 20.83 104.17 20.09C103.44 19.35 103.08 18.42 103.08 17.28C103.08 16.3 103.35 15.45 103.88 14.74C104.41 14.03 105.17 13.48 106.13 13.1C107.11 12.72 108.25 12.52 109.55 12.52C111.48 12.52 113 12.93 114.11 13.75C115.22 14.56 115.87 15.67 116.06 17.08Z" fill="#F5F8FC" fill-opacity="1.000000" fill-rule="nonzero"/>
		<path id="Vector" d="M3.56 25.4L24.5 25.4L24.5 3L3.5 3C1.57 3 0 4.58 0 6.53L0 27.16L0 27.16C0 27.17 0 27.18 0 27.19C0 29.25 1.6 31 3.5 31L24.5 31L24.5 29.13L3.5 29.13C2.63 29.13 1.84 28.2 1.84 27.19C1.84 26.22 2.63 25.4 3.56 25.4ZM5.54 4.88L11.09 4.88L11.09 14.96L8.29 12.48L5.54 14.95L5.54 4.88ZM1.84 6.55C1.84 5.62 2.58 4.87 3.5 4.86L3.69 4.86L5.54 4.86L3.69 4.86L3.69 17.46L5.52 17.46L8.3 14.97L11.11 17.46L12.94 17.46L12.94 4.86L22.65 4.86L22.65 23.53L5.55 23.53L3.7 23.53L3.56 23.53C2.96 23.53 2.37 23.69 1.84 23.99L1.84 6.55L1.84 6.55Z" fill="#FFCA42" fill-opacity="1.000000" fill-rule="nonzero"/>
	</g>
</svg>
